<?xml version="1.0" encoding="utf-8" ?>
<svg baseProfile="full" height="1000px" version="1.1" width="800px" xmlns="http://www.w3.org/2000/svg" xmlns:ev="http://www.w3.org/2001/xml-events" xmlns:xlink="http://www.w3.org/1999/xlink"><defs /><path d="M0 0 C506.88 0 1013.76 0 1536 0 C1536 337.92 1536 675.84 1536 1024 C1029.12 1024 522.24 1024 0 1024 C0 686.0799999999999 0 348.15999999999997 0 0 Z " fill="#0E0D0E" stroke="none" stroke-width="1" /><path d="M0 0 C0.9314785766600835 0.0035952758788937444 1.8629571533203944 0.007190551757815911 2.822662353515625 0.010894775390625 C3.7981654357909065 0.010748748779292328 4.773668518066415 0.010602722167959655 5.7787322998046875 0.0104522705078125 C9.01987898937864 0.011151835172768187 12.260968999405577 0.018946258072105593 15.502105712890625 0.026763916015625 C17.742700893037863 0.028627941039559346 19.983296479424553 0.030051916525735578 22.223892211914063 0.0310516357421875 C28.134044559996937 0.03487803893756336 34.04417250820006 0.044709363619006126 39.954315185546875 0.055755615234375 C45.98000762789616 0.06596711100908692 52.00570399546291 0.07054869284047527 58.031402587890625 0.075592041015625 C69.86409562658287 0.08633152316366477 81.69677051945405 0.10340940572888258 93.52944946289063 0.124420166015625 C93.55629258622821 2.936982977942563 93.57621133888688 5.749292576202123 93.59194946289063 8.561920166015625 C93.6003283691407 9.364361572265636 93.60870727539054 10.16680297851562 93.61734008789063 10.993560791015625 C93.62596376546139 13.037372375277158 93.58173096195742 15.081259182482569 93.52944946289063 17.124420166015625 C93.03444946289073 17.61942016601563 93.03444946289073 17.61942016601563 92.52944946289063 18.124420166015625 C65.13944946289052 18.124420166015625 37.74944946289065 18.124420166015625 9.529449462890625 18.124420166015625 C9.529449462890625 262.32442016601567 9.529449462890625 506.5244201660157 9.529449462890625 758.1244201660156 C128.98944946289066 758.1244201660156 248.4494494628907 758.1244201660156 371.5294494628906 758.1244201660156 C371.5294494628906 513.5944201660157 371.5294494628906 269.0644201660156 371.5294494628906 17.124420166015625 C341.49944946289065 17.124420166015625 311.4694494628907 17.124420166015625 280.5294494628906 17.124420166015625 C280.5294494628906 11.514420166015611 280.5294494628906 5.904420166015626 280.5294494628906 0.124420166015625 C294.4632427744875 0.1012998467590478 308.39703155966026 0.08350667227026065 322.3308401107788 0.07260799407958984 C328.80012626759367 0.06737848263713886 335.26939934893676 0.06027960718341774 341.7386779785156 0.048980712890625 C347.9761524644266 0.03815424722046146 354.21361433541506 0.032143845804426974 360.4510974884033 0.029542922973632813 C362.83665223461094 0.027688237310627528 365.22220625297905 0.024066804583611656 367.60775566101074 0.018690109252929688 C370.9364053747895 0.01148287633375844 374.2650022498674 0.010429089824043558 377.5936584472656 0.010894775390625 C378.59059219360347 0.0072994995117312556 379.5875259399413 0.0037042236328090894 380.6146697998047 0 C381.5163589477538 0.0013746643066383513 382.41804809570317 0.0027493286132767025 383.34706115722656 0.0041656494140625 C384.135194158554 0.003243856430060532 384.92332715988164 0.0023220634460585643 385.73534297943115 0.0013723373413085938 C387.5294494628906 0.124420166015625 387.5294494628906 0.124420166015625 388.5294494628906 1.124420166015625 C388.62751628100295 2.815276315335268 388.6546796029793 4.51026900456705 388.6547986268997 6.2039666175842285 C388.6573021453619 7.313989182114597 388.65980566382405 8.424011746644965 388.6623850464821 9.567671358585358 C388.66004388034344 10.80491752326489 388.6577027142048 12.042163687944424 388.6552906036377 13.316902160644531 C388.656744044423 14.622869266867639 388.6581974852086 15.928836373090746 388.6596949696541 17.27437824010849 C388.66362069953857 20.932425019066756 388.66124260256856 24.59044571798782 388.65791701711714 28.24849211424589 C388.6553964376444 32.21562235386307 388.65863378367635 36.18274837210015 388.6611603498459 40.14987802505493 C388.66478521346676 47.11370809353386 388.66465442665367 54.0775304217494 388.66211318969727 61.04136085510254 C388.6583445935564 71.39649174576493 388.6602571873477 81.75161605641114 388.6633214969188 92.1067468971014 C388.6685989652433 110.5965452293907 388.6681261927017 129.08634011591 388.66524258442223 147.576138779521 C388.66273141026977 163.75644294712038 388.6620682760049 179.93674584856592 388.6632652282715 196.11705017089844 C388.6633798059122 197.72419846547768 388.6633798059122 197.72419846547768 388.66349669825286 199.36381440237164 C388.6638080141365 203.71262211729538 388.66412641177067 208.0614298316038 388.6644564620219 212.41023754514754 C388.6675185123572 253.24231278998047 388.66473717054737 294.0743858342699 388.6593595650047 334.9064607396722 C388.6546136242914 371.218535633662 388.65503823745894 407.53060702140715 388.6598205566406 443.8426818847656 C388.6651700496104 484.5979643577814 388.66730139162246 525.3532448850501 388.6642082929611 566.1085276603699 C388.663887554078 570.449615160181 388.66357471530887 574.7907026605063 388.6632652282715 579.1317901611328 C388.6631861509104 580.2007515593245 388.6631070735491 581.2697129575163 388.66302559990436 582.3710671253502 C388.6618860009221 598.5449809512589 388.6632223510387 614.7188933749261 388.66574478149414 630.8928070068359 C388.6685972520893 649.2750997046024 388.66790375962137 667.657388403805 388.6624640375376 686.0396806001663 C388.6595169600637 696.3396735191598 388.65935154460317 706.6396577892588 388.66311021195725 716.9396504927427 C388.6653406645414 723.8065779979829 388.6639788176208 730.6734985212482 388.65960544301197 737.5404249858111 C388.65721046028875 741.4616679472773 388.6564465646302 745.3828936373432 388.66001142561436 749.3041360974312 C388.6637994174557 753.5134181161953 388.65997520922474 757.7226570891036 388.6552906036377 761.9319381713867 C388.65763176977634 763.1691843360662 388.659972935915 764.4064305007457 388.6623850464821 765.6811689734459 C388.6598815280199 766.7911915379763 388.65737800955776 767.9012141025066 388.6547986268997 769.044873714447 C388.654696988277 770.4911804045737 388.654696988277 770.4911804045737 388.65459329634905 771.9667054116726 C388.5294494628906 774.1244201660156 388.5294494628906 774.1244201660156 387.5294494628906 775.1244201660156 C385.4401996735039 775.2232678160412 383.34753775589843 775.2499773717466 381.2559509277344 775.2502613067627 C380.589877448082 775.2517147475481 379.92380396842964 775.2531681883335 379.2375464439392 775.2546656727791 C376.9777288516593 775.2583512821623 374.7179776376638 775.254827495268 372.4581604003906 775.2514038085938 C370.83283833782707 775.2525546182992 369.2075165347087 775.2541418684392 367.5821952819824 775.2561310529709 C363.0941581709478 775.2603299037032 358.60614215098576 775.2582311955434 354.1181049346924 775.2551448345184 C349.286427586384 775.2528932008412 344.45475400532973 775.2563691598962 339.6230773925781 775.2591247558594 C330.1492227078211 775.2635839966892 320.6753759210146 775.2626053050091 311.2015209197998 775.2597121149302 C303.50561330043 775.2574586831514 295.80970790302285 775.2571452972783 288.1138000488281 775.2582359313965 C286.4741978752613 775.258465780951 286.4741978752613 775.258465780951 284.8014724254608 775.258700273931 C282.581301688497 775.2590199817822 280.3611309521773 775.2593441945879 278.1409602165222 775.2596728652716 C257.2959305899244 775.2625281078645 236.45090535263853 775.2592399421944 215.60587644577026 775.2538724988699 C197.6988881687223 775.2494044204241 179.79190637293232 775.2501803405631 161.88491821289063 775.2547912597656 C141.1172283747503 775.2601362432825 120.34954238899968 775.2622534132475 99.58185195922852 775.2591789960861 C97.369600932406 775.2588604286849 95.15734990497504 775.2585460584027 92.94509887695313 775.2582359313965 C91.85647513151162 775.2580816558749 90.76785138607033 775.2579273803532 89.6462390422821 775.2577684298158 C81.95476104558497 775.256903045374 74.26328548139259 775.2583666090305 66.57180786132813 775.2607154846191 C57.20538209035749 775.2635128425915 47.83896470521745 775.2627765887304 38.4725399017334 775.2574347406626 C33.688724905648314 775.2547968518676 28.90492391817793 775.2537941295749 24.121109008789063 775.2570838928223 C19.749154239302698 775.2600450740223 15.37722657618292 775.2584570490242 11.005274295806885 775.253106340766 C9.416468100800103 775.25198138613 7.827659654971285 775.2525750448261 6.238854885101318 775.2549821287394 C4.0935191643238795 775.2579851759028 1.9482785857028375 775.254942638582 -0.197052001953125 775.2502613067627 C-1.3930086898803893 775.2500989544392 -2.5889653778076536 775.2499366021157 -3.8211631774902344 775.2497693300247 C-6.470550537109375 775.1244201660156 -6.470550537109375 775.1244201660156 -7.470550537109375 774.1244201660156 C-7.568617355221704 772.433564016696 -7.595780677198036 770.7385713274642 -7.595899701118469 769.044873714447 C-7.599654978811714 767.3798398676515 -7.599654978811714 767.3798398676515 -7.603486120700836 765.6811689734459 C-7.601144954562187 764.4439228087664 -7.598803788423538 763.2066766440869 -7.596391677856445 761.9319381713867 C-7.5978451186417715 760.6259710651636 -7.599298559427325 759.3200039589406 -7.600796043872833 757.9744620919228 C-7.604721773757092 754.3164153129642 -7.602343676787314 750.6583946140437 -7.599018091335893 747.0003482177854 C-7.596497511863163 743.0332179781677 -7.5997348578951005 739.0660919599313 -7.602261424064636 735.0989623069763 C-7.605886287685507 728.1351322384971 -7.605755500872419 721.171309910282 -7.603214263916016 714.2074794769287 C-7.599445667775171 703.8523485862663 -7.6013582615664745 693.4972242756202 -7.6044225711375475 683.1420934349298 C-7.609700039462041 664.6522951026406 -7.60922726692047 646.1625002161212 -7.606343658640981 627.6727015525103 C-7.603832484488521 611.4923973849108 -7.603169350223652 595.3120944834654 -7.604366302490234 579.1317901611328 C-7.604442687584196 578.0603579647467 -7.604519072677931 576.9889257683604 -7.604597772471607 575.8850259296596 C-7.604909088355271 571.536218214736 -7.605227485989417 567.1874105004273 -7.605557536240667 562.8386027868837 C-7.608619586575969 522.0065275420507 -7.605838244766119 481.1744544977614 -7.600460639223456 440.34237959235907 C-7.595714698509937 404.03030469836926 -7.596139311677689 367.7182333106241 -7.600921630859375 331.4061584472656 C-7.606271123829174 290.65087597425 -7.608402465841209 249.89559544698113 -7.605309367179871 209.14031267166138 C-7.604988628296724 204.79922517185025 -7.604675789527619 200.4581376715248 -7.604366302490234 196.11705017089844 C-7.604287225129156 195.0480887727067 -7.604208147767849 193.97912737451497 -7.604126674123108 192.877773206681 C-7.602987075140845 176.7038593807722 -7.6043234252576895 160.5299469571052 -7.606845855712891 144.3560333251953 C-7.609698326308035 125.97374062742892 -7.6090048338401175 107.5914519282262 -7.603565111756325 89.20915973186493 C-7.600618034282434 78.909166812871 -7.600452618821919 68.60918254277274 -7.604211286175996 58.30918983928859 C-7.606441738760168 51.44226233404808 -7.605079891839523 44.57534181078316 -7.600706517230719 37.708415346220136 C-7.598311534507502 33.78717238475372 -7.597547638848937 29.86594669468812 -7.601112499833107 25.944704234600067 C-7.604900491674471 21.735422215836024 -7.60107628344349 17.52618324292763 -7.596391677856445 13.316902160644531 C-7.598732843995094 12.079655995964998 -7.601074010133743 10.842409831285465 -7.603486120700836 9.567671358585358 C-7.600982602238673 8.45764879405499 -7.59847908377651 7.3476262295246215 -7.595899701118469 6.2039666175842285 C-7.595831942036739 5.239762157499797 -7.595764182955008 4.2755576974153655 -7.595694370567799 3.282134920358658 C-7.3263438824362765 -1.3619734329639357 -3.854819876620013 0.006287548328089088 0 0 Z " fill="#DD6719" stroke="none" stroke-width="1" /><path d="M0 0 C0.9501800537109375 0.0035952758788937444 1.900360107421875 0.007190551757815911 2.87933349609375 0.010894775390625 C4.371848831176763 0.010675735473625991 4.371848831176763 0.010675735473625991 5.8945159912109375 0.0104522705078125 C9.20059347624263 0.011151855036274583 12.506615400177509 0.0189463717992453 15.81268310546875 0.026763916015625 C18.098118786682576 0.02862793395760832 20.383554866155606 0.030051912772051992 22.668991088867188 0.0310516357421875 C28.697510726516654 0.03487809461228153 34.72600644451482 0.044709466776453155 40.7545166015625 0.055755615234375 C46.900855268860454 0.06596699163293351 53.047197784009 0.07054866718584663 59.19354248046875 0.075592041015625 C71.26321447448555 0.08633162131283711 83.33286867958 0.10340957033966447 95.40252685546875 0.124420166015625 C95.40252685546875 6.064420166015623 95.40252685546875 12.00442016601562 95.40252685546875 18.124420166015625 C67.02252685546875 18.124420166015625 38.64252685546876 18.124420166015625 9.40252685546875 18.124420166015625 C9.40252685546875 262.6544201660156 9.40252685546875 507.18442016601557 9.40252685546875 759.1244201660156 C128.86252685546876 759.1244201660156 248.32252685546877 759.1244201660156 371.40252685546875 759.1244201660156 C371.40252685546875 514.2644201660156 371.40252685546875 269.4044201660156 371.40252685546875 17.124420166015625 C342.03252685546875 17.124420166015625 312.66252685546874 17.124420166015625 282.40252685546875 17.124420166015625 C282.40252685546875 11.514420166015611 282.40252685546875 5.904420166015626 282.40252685546875 0.124420166015625 C317.38252685546877 0.124420166015625 352.3625268554688 0.124420166015625 388.40252685546875 0.124420166015625 C388.40252685546875 255.87442016601563 388.40252685546875 511.6244201660156 388.40252685546875 775.1244201660156 C323.24815185546873 775.1450451660156 258.0937768554687 775.1656701660156 190.96502685546875 775.1869201660156 C170.352353515625 775.1960241699219 149.73968017578125 775.2051281738281 128.50238037109375 775.2145080566406 C103.43365478565752 775.219024658203 103.43365478565752 775.219024658203 91.71757507324219 775.2198638916016 C83.49178280729538 775.2207998228615 75.26599726373274 775.2244822614464 67.04020690917969 775.2299957275391 C57.565999566679295 775.2363366386355 48.09179871496315 775.2392618680091 38.617589231580496 775.2378651164472 C33.76548628006424 775.2372596205352 28.913397857554216 775.2382557762164 24.0612975358963 775.2436352968216 C19.68244718618253 775.2484609133596 15.30362179270928 775.2487703693455 10.92477035522461 775.2453212738037 C9.333529254504356 775.2448936883168 7.742286658789027 775.2461920912917 6.151048541069031 775.2493027448654 C3.998813158895402 775.2532661320458 1.8466697801908936 775.2511835500596 -0.30556392669677734 775.2474679946899 C-1.505100449919695 775.2478477150202 -2.7046369731426267 775.2482274353504 -3.940523087978363 775.2486186623573 C-6.597473144531222 775.1244201660156 -6.597473144531222 775.1244201660156 -7.59747314453125 774.1244201660156 C-7.69553996264365 772.433564016696 -7.722703284619882 770.7385713274642 -7.722822308540344 769.044873714447 C-7.726577586233617 767.3798398676515 -7.726577586233617 767.3798398676515 -7.730408728122711 765.6811689734459 C-7.728067561984062 764.4439228087664 -7.725726395845413 763.2066766440869 -7.72331428527832 761.9319381713867 C-7.724767726063732 760.6259710651636 -7.726221166849143 759.3200039589406 -7.727718651294708 757.9744620919228 C-7.731644381179066 754.3164153129642 -7.729266284209103 750.6583946140437 -7.725940698757768 747.0003482177854 C-7.723420119284995 743.0332179781677 -7.726657465317018 739.0660919599313 -7.729184031486511 735.0989623069763 C-7.732808895107468 728.1351322384971 -7.732678108294365 721.171309910282 -7.730136871337891 714.2074794769287 C-7.7263682751969895 703.8523485862663 -7.728280868988463 693.4972242756202 -7.7313451785594225 683.1420934349298 C-7.736622646883973 664.6522951026406 -7.736149874342388 646.1625002161212 -7.733266266062856 627.6727015525103 C-7.730755091910311 611.4923973849108 -7.730091957645541 595.3120944834654 -7.731288909912109 579.1317901611328 C-7.731365295005958 578.0603579647467 -7.73144168009982 576.9889257683604 -7.731520379893482 575.8850259296596 C-7.731831695777231 571.536218214736 -7.732150093411349 567.1874105004273 -7.732480143662542 562.8386027868837 C-7.735542193997759 522.0065275420507 -7.73276085218798 481.1744544977614 -7.727383246645331 440.34237959235907 C-7.722637305931897 404.03030469836926 -7.723061919099507 367.7182333106241 -7.72784423828125 331.4061584472656 C-7.73319373125112 290.65087597425 -7.735325073263084 249.89559544698113 -7.732231974601746 209.14031267166138 C-7.731911235718499 204.79922517185025 -7.731598396949437 200.4581376715248 -7.731288909912109 196.11705017089844 C-7.7312098325509595 195.0480887727067 -7.73113075518981 193.97912737451497 -7.731049281544983 192.877773206681 C-7.72990968256282 176.7038593807722 -7.731246032679465 160.5299469571052 -7.733768463134766 144.3560333251953 C-7.73662093372991 125.97374062742892 -7.735927441261893 107.5914519282262 -7.7304877191782 89.20915973186493 C-7.727540641704337 78.909166812871 -7.727375226243751 68.60918254277274 -7.731133893597871 58.30918983928859 C-7.733364346182 51.44226233404808 -7.732002499261313 44.57534181078316 -7.727629124652594 37.708415346220136 C-7.725234141929349 33.78717238475372 -7.724470246270769 29.86594669468812 -7.728035107254982 25.944704234600067 C-7.73182309909626 21.735422215836024 -7.727998890865308 17.52618324292763 -7.72331428527832 13.316902160644531 C-7.725655451416969 12.079655995964998 -7.727996617555618 10.842409831285465 -7.730408728122711 9.567671358585358 C-7.727905209660534 8.45764879405499 -7.725401691198343 7.3476262295246215 -7.722822308540344 6.2039666175842285 C-7.722754549458628 5.239762157499797 -7.722686790376898 4.2755576974153655 -7.722616977989674 3.282134920358658 C-7.450915015479481 -1.402517268172602 -3.8736638235745033 0.00619459463922567 0 0 Z " fill="#DB6518" stroke="none" stroke-width="1" /><path d="M0 0 C8.515278086099613 6.542945991260993 18.38921141751746 15.929406971735546 20.25390625 27.0390625 C21.154096329225865 35.70985889530189 21.154096329225865 35.70985889530189 20.25390625 40.0390625 C16.61913626859109 42.808304196346484 13.923879893379251 43.41497725075973 9.4093017578125 43.420013427734375 C8.240086822509738 43.42847290039063 7.0708718872070335 43.436932373046886 5.8662261962890625 43.445648193359375 C3.9553446197509743 43.43653915405275 3.9553446197509743 43.43653915405275 2.005859375 43.42724609375 C0.643789464090105 43.431313462903006 -0.7182771456641603 43.43665627431443 -2.0803375244140625 43.44317626953125 C-5.772490689756182 43.4568361795682 -9.464391964923266 43.45155681459721 -13.156549453735352 43.442039012908936 C-17.023277751561807 43.43443550685359 -20.889984708135785 43.441489944556764 -24.7567138671875 43.446197509765625 C-31.24979518456712 43.45165305466023 -37.74277408139989 43.4444687605839 -44.23583984375 43.43017578125 C-51.73913197819297 43.41384959844811 -59.2421795465587 43.419138252324274 -66.74546575546265 43.43565499782562 C-73.1914725035266 43.44927562711047 -79.63740569266119 43.45118671931846 -86.08342218399048 43.44333899021149 C-89.93166772636789 43.43866562817033 -93.77979837062236 43.4380283027655 -97.62803649902344 43.44794845581055 C-101.24621446858589 43.45662429584206 -104.86407759041307 43.450585242514734 -108.48222160339355 43.433265686035156 C-110.44094791667058 43.42741660081424 -112.39970090425754 43.43631114598182 -114.35841369628906 43.445648193359375 C-115.5276286315918 43.43718872070312 -116.69684356689453 43.428729248046864 -117.9014892578125 43.420013427734375 C-119.42238536834716 43.41831681251526 -119.42238536834716 43.41831681251526 -120.97400665283203 43.41658592224121 C-124.22479016142546 42.973870065158906 -126.12167054337962 41.98171112013404 -128.74609375 40.0390625 C-130.82416996105883 33.79378026995619 -128.47359273173316 27.6668633561016 -125.80859375 21.9765625 C-122.38976640931526 15.440595152093465 -118.0166174264383 10.161900749427758 -112.74609375 5.0390625 C-112.1441015625 4.416445312500002 -111.542109375 3.7938281250000045 -110.921875 3.15234375 C-82.30872933917578 -24.46772093344201 -30.562419227014402 -21.824088836360232 0 0 Z " fill="#FDB12F" stroke="none" stroke-width="1" /><path d="M0 0 C1.1885961914063046 0.004914550781251137 2.377192382812609 0.009829101562502274 3.601806640625 0.014892578125 C17.011507331137636 0.1935175958618629 28.592753815787773 2.427127931053292 40.75 8.3125 C41.93335937500001 8.882910156250006 41.93335937500001 8.882910156250006 43.140625 9.46484375 C56.50387043862702 16.40345195851785 68.97828442268815 27.718712942381984 73.75 42.3125 C74.38845249683118 47.05669316876103 74.71548872930839 51.60417509278864 73.75 56.3125 C70.63697711281748 59.39383318035155 68.27236214636969 59.68742510399673 63.98095703125 59.68672180175781 C62.21440765380862 59.697243270874026 62.21440765380862 59.697243270874026 60.41217041015625 59.707977294921875 C59.123732299804715 59.700333557128914 57.83529418945318 59.69268981933595 56.5078125 59.684814453125 C55.13441695575034 59.687242972853426 53.76102317687605 59.69096287999025 52.38763427734375 59.69587707519531 C48.66035426742724 59.705281568685706 44.93333705928217 59.69586449245833 41.206077575683594 59.68254494667053 C37.30551616796993 59.67122734210784 33.40496764037994 59.675338196527235 29.50439453125 59.67729187011719 C22.95405789642291 59.67817474890586 16.403824768234017 59.66709578296536 9.853515625 59.648681640625 C2.2803966958902038 59.62751408725501 -5.2925705993036445 59.62400417238078 -12.865713119506836 59.630243599414825 C-20.150750499525657 59.63593838029789 -27.43573447947324 59.63029025336249 -34.72076416015625 59.619070053100586 C-37.8211566924158 59.614425574507095 -40.92151655397038 59.61354956219304 -44.02191162109375 59.61565589904785 C-47.67285115025129 59.61753962041564 -51.32363636390323 59.60942852532884 -54.97454071044922 59.59359550476074 C-56.953740723317196 59.58732939339001 -58.932964136857436 59.59085989693503 -60.91217041015625 59.59466552734375 C-62.67871978759763 59.58403831481934 -62.67871978759763 59.58403831481934 -64.48095703125 59.57319641113281 C-65.5044827270508 59.571143541336056 -66.5280084228516 59.5690906715393 -67.58255004882813 59.566975593566895 C-70.28893958200433 59.308785151202386 -71.93738295437834 58.70013453130841 -74.25 57.3125 C-75.50862690315921 45.28562070314533 -72.0784539896024 36.82078326220869 -65.015625 27.30078125 C-56.40607424753557 17.21410169196575 -45.58734376624875 10.09984351665787 -33.25 5.3125 C-32.49203125000008 5.017304687500001 -31.734062499999936 4.722109375000002 -30.953125 4.41796875 C-20.84292369730565 0.7790133165834163 -10.679388557994344 -0.052242311981686385 0 0 Z " fill="#FDB12E" stroke="none" stroke-width="1" /><path d="M0 0 C0.9501800537109375 0.0035952758788937444 1.900360107421875 0.007190551757815911 2.87933349609375 0.010894775390625 C4.371848831176763 0.010675735473625991 4.371848831176763 0.010675735473625991 5.8945159912109375 0.0104522705078125 C9.20059347624263 0.011151855036274583 12.506615400177509 0.0189463717992453 15.81268310546875 0.026763916015625 C18.098118786682576 0.02862793395760832 20.383554866155606 0.030051912772051992 22.668991088867188 0.0310516357421875 C28.697510726516654 0.03487809461228153 34.72600644451482 0.044709466776453155 40.7545166015625 0.055755615234375 C46.900855268860454 0.06596699163293351 53.047197784009 0.07054866718584663 59.19354248046875 0.075592041015625 C71.26321447448555 0.08633162131283711 83.33286867958 0.10340957033966447 95.40252685546875 0.124420166015625 C95.40252685546875 5.734420166015639 95.40252685546875 11.344420166015624 95.40252685546875 17.124420166015625 C94.74252685546875 16.79442016601564 94.08252685546876 16.46442016601563 93.40252685546875 16.124420166015625 C93.73252685546873 11.174420166015636 94.06252685546875 6.224420166015619 94.40252685546875 1.124420166015625 C61.40252685546875 1.124420166015625 28.40252685546875 1.124420166015625 -5.59747314453125 1.124420166015625 C-5.59747314453125 255.88442016601562 -5.59747314453125 510.6444201660156 -5.59747314453125 773.1244201660156 C124.09252685546875 773.1244201660156 253.78252685546875 773.1244201660156 387.40252685546875 773.1244201660156 C387.33033935546877 734.5608264160156 387.2581518554687 695.9972326660156 387.18377685546875 656.2650451660156 C387.14074873598247 632.8515601750426 387.09774957237016 609.438075185567 387.0552155971527 586.0245893001556 C387.03012274201683 572.2128854307745 387.0050127097836 558.4011815927968 386.9798491746187 544.5894778519869 C386.9768096940853 542.9211493591511 386.97377075899277 541.2528208653213 386.9707323759794 539.5844923704863 C386.9261526052626 515.1087248741502 386.8806092647676 490.63295934071664 386.83430238068104 466.15719505399466 C386.76259005656425 428.24477526162036 386.69253194804975 390.3323527093909 386.62542337179184 352.41992446780205 C386.6226584265679 350.85799875511526 386.61989153837686 349.29607304586676 386.61712270975113 347.7341473400593 C386.47019766744256 264.8465045782955 386.36124779419436 181.95907830209967 386.37701416015625 59.579803466796875 C386.37726327478885 58.64162956804037 386.37751238942144 57.70345566928387 386.37776905298233 56.73685225844383 C386.3828219472095 38.53270624132037 386.3931730086484 20.32856505293489 386.40252685546875 2.124420166015625 C352.7425268554687 2.124420166015625 319.08252685546876 2.124420166015625 284.40252685546875 2.124420166015625 C284.40252685546875 6.414420166015617 284.40252685546875 10.704420166015638 284.40252685546875 15.124420166015625 C313.44252685546877 15.124420166015625 342.48252685546873 15.124420166015625 372.40252685546875 15.124420166015625 C372.73252685546873 13.804420166015632 373.0625268554688 12.484420166015639 373.40252685546875 11.124420166015625 C373.40252685546875 257.6344201660156 373.40252685546875 504.1444201660156 373.40252685546875 758.1244201660156 C373.07252685546877 758.1244201660156 372.7425268554687 758.1244201660156 372.40252685546875 758.1244201660156 C372.40252685546875 513.5944201660157 372.40252685546875 269.0644201660156 372.40252685546875 17.124420166015625 C342.70252685546876 17.124420166015625 313.0025268554688 17.124420166015625 282.40252685546875 17.124420166015625 C282.40252685546875 11.514420166015611 282.40252685546875 5.904420166015626 282.40252685546875 0.124420166015625 C317.38252685546877 0.124420166015625 352.3625268554688 0.124420166015625 388.40252685546875 0.124420166015625 C388.40252685546875 255.87442016601563 388.40252685546875 511.6244201660156 388.40252685546875 775.1244201660156 C323.24815185546873 775.1450451660156 258.0937768554687 775.1656701660156 190.96502685546875 775.1869201660156 C170.352353515625 775.1960241699219 149.73968017578125 775.2051281738281 128.50238037109375 775.2145080566406 C103.43365478565752 775.219024658203 103.43365478565752 775.219024658203 91.71757507324219 775.2198638916016 C83.49178280729538 775.2207998228615 75.26599726373274 775.2244822614464 67.04020690917969 775.2299957275391 C57.565999566679295 775.2363366386355 48.09179871496315 775.2392618680091 38.617589231580496 775.2378651164472 C33.76548628006424 775.2372596205352 28.913397857554216 775.2382557762164 24.0612975358963 775.2436352968216 C19.68244718618253 775.2484609133596 15.30362179270928 775.2487703693455 10.92477035522461 775.2453212738037 C9.333529254504356 775.2448936883168 7.742286658789027 775.2461920912917 6.151048541069031 775.2493027448654 C3.998813158895402 775.2532661320458 1.8466697801908936 775.2511835500596 -0.30556392669677734 775.2474679946899 C-1.505100449919695 775.2478477150202 -2.7046369731426267 775.2482274353504 -3.940523087978363 775.2486186623573 C-6.597473144531222 775.1244201660156 -6.597473144531222 775.1244201660156 -7.59747314453125 774.1244201660156 C-7.69553996264365 772.433564016696 -7.722703284619882 770.7385713274642 -7.722822308540344 769.044873714447 C-7.726577586233617 767.3798398676515 -7.726577586233617 767.3798398676515 -7.730408728122711 765.6811689734459 C-7.728067561984062 764.4439228087664 -7.725726395845413 763.2066766440869 -7.72331428527832 761.9319381713867 C-7.724767726063732 760.6259710651636 -7.726221166849143 759.3200039589406 -7.727718651294708 757.9744620919228 C-7.731644381179066 754.3164153129642 -7.729266284209103 750.6583946140437 -7.725940698757768 747.0003482177854 C-7.723420119284995 743.0332179781677 -7.726657465317018 739.0660919599313 -7.729184031486511 735.0989623069763 C-7.732808895107468 728.1351322384971 -7.732678108294365 721.171309910282 -7.730136871337891 714.2074794769287 C-7.7263682751969895 703.8523485862663 -7.728280868988463 693.4972242756202 -7.7313451785594225 683.1420934349298 C-7.736622646883973 664.6522951026406 -7.736149874342388 646.1625002161212 -7.733266266062856 627.6727015525103 C-7.730755091910311 611.4923973849108 -7.730091957645541 595.3120944834654 -7.731288909912109 579.1317901611328 C-7.731365295005958 578.0603579647467 -7.73144168009982 576.9889257683604 -7.731520379893482 575.8850259296596 C-7.731831695777231 571.536218214736 -7.732150093411349 567.1874105004273 -7.732480143662542 562.8386027868837 C-7.735542193997759 522.0065275420507 -7.73276085218798 481.1744544977614 -7.727383246645331 440.34237959235907 C-7.722637305931897 404.03030469836926 -7.723061919099507 367.7182333106241 -7.72784423828125 331.4061584472656 C-7.73319373125112 290.65087597425 -7.735325073263084 249.89559544698113 -7.732231974601746 209.14031267166138 C-7.731911235718499 204.79922517185025 -7.731598396949437 200.4581376715248 -7.731288909912109 196.11705017089844 C-7.7312098325509595 195.0480887727067 -7.73113075518981 193.97912737451497 -7.731049281544983 192.877773206681 C-7.72990968256282 176.7038593807722 -7.731246032679465 160.5299469571052 -7.733768463134766 144.3560333251953 C-7.73662093372991 125.97374062742892 -7.735927441261893 107.5914519282262 -7.7304877191782 89.20915973186493 C-7.727540641704337 78.909166812871 -7.727375226243751 68.60918254277274 -7.731133893597871 58.30918983928859 C-7.733364346182 51.44226233404808 -7.732002499261313 44.57534181078316 -7.727629124652594 37.708415346220136 C-7.725234141929349 33.78717238475372 -7.724470246270769 29.86594669468812 -7.728035107254982 25.944704234600067 C-7.73182309909626 21.735422215836024 -7.727998890865308 17.52618324292763 -7.72331428527832 13.316902160644531 C-7.725655451416969 12.079655995964998 -7.727996617555618 10.842409831285465 -7.730408728122711 9.567671358585358 C-7.727905209660534 8.45764879405499 -7.725401691198343 7.3476262295246215 -7.722822308540344 6.2039666175842285 C-7.722754549458628 5.239762157499797 -7.722686790376898 4.2755576974153655 -7.722616977989674 3.282134920358658 C-7.450915015479481 -1.402517268172602 -3.8736638235745033 0.00619459463922567 0 0 Z " fill="#DD6919" stroke="none" stroke-width="1" /><path d="M0 0 C48.50999999999999 0 97.01999999999998 0 147 0 C147 13.833333333333343 147 13.833333333333343 141.75 19.375 C135.01250204438122 23.356248791956574 128.40306136574486 23.29286977099693 120.775634765625 23.274658203125 C119.6658023071289 23.279769134521473 118.5559698486328 23.284880065917974 117.41250610351563 23.290145874023438 C113.75541748285019 23.304009906600783 110.09851797681478 23.303087561540906 106.44140625 23.30078125 C103.89224680884212 23.304669708615677 101.34308801309885 23.30900468948346 98.79393005371094 23.313766479492188 C93.4552879971273 23.32122168742788 88.1167149521192 23.321081195202623 82.778076171875 23.315673828125 C76.62218062409596 23.30963422691181 70.46651364968409 23.321950092433724 64.31065708398819 23.343243896961212 C58.369552580878235 23.3630330155342 52.42851845388151 23.366027916723425 46.48737907409668 23.36250877380371 C43.96805217129804 23.363021453992246 41.448721572556394 23.368249173658057 38.92941474914551 23.378320693969727 C35.404018277352776 23.39068581190861 31.879148099115696 23.383892528909712 28.353759765625 23.372314453125 C26.80039665222168 23.383780059814455 26.80039665222168 23.383780059814455 25.215652465820313 23.395477294921875 C17.230260906065666 23.337644028608366 10.654885002602867 22.089793885687925 4.5625 16.5 C3.9037890625000102 15.912187499999987 3.245078124999992 15.324375000000003 2.56640625 14.71875 C-1.4349029617466158 10.328286027011188 0 6.2474482891939545 0 0 Z " fill="#FAAE2D" stroke="none" stroke-width="1" /><path d="M0 0 C48.180000000000064 0 96.3599999999999 0 146 0 C145 13 145 13 142 18 C136.8165192347128 22.056637120659502 132.59931196262573 23.113624132322542 126.13813781738281 23.147171020507813 C125.18650253295891 23.154326324462886 124.23486724853524 23.16148162841796 123.25439453125 23.168853759765625 C122.22209716796874 23.17154266357423 121.18979980468748 23.174231567382805 120.126220703125 23.177001953125 C119.02964645385737 23.18357315063477 117.93307220458973 23.190144348144543 116.80326843261719 23.196914672851563 C113.1774386362772 23.21661080424832 109.55165019211472 23.228302148862184 105.92578125 23.23828125 C104.68513601303107 23.242356777191162 103.44449077606191 23.246432304382324 102.16625022888184 23.25063133239746 C96.2758681503808 23.269329424750083 90.38549913203519 23.28389858288429 84.49509459733963 23.29224330186844 C77.71854638835475 23.302004571669613 70.94232577798539 23.328302478570834 64.16589289903641 23.3687441945076 C58.27819813306132 23.40266383678815 52.39061224298621 23.414398130795973 46.50282859802246 23.418447494506836 C44.00746628947263 23.42330873686771 41.51210736398184 23.434909416545338 39.01680946350098 23.4534854888916 C35.517860621881255 23.477914178015055 32.01976052325358 23.47690454635071 28.520751953125 23.469970703125 C27.49857574462885 23.482780761718743 26.476399536132703 23.495590820312486 25.423248291015625 23.5087890625 C17.169564624578243 23.44944348076166 9.561182660117083 21.79260036636191 3.4375 15.9375 C-1.2273588108175773 10.315747074142934 0 8.35576016490569 0 0 Z " fill="#FAAE2D" stroke="none" stroke-width="1" /><path d="M0 0 C0.32999999999992724 0 0.6600000000000819 0 1 0 C1.0171303966658343 73.68131962686252 1.0330311145260112 147.36263949259592 1.0423431396484375 221.04396057128906 C1.0424811967181995 222.1335496343952 1.0426192537881889 223.22313869750127 1.0427614944055676 224.34574561100453 C1.0457540338511535 248.0224402505845 1.0485242682548233 271.6991349112907 1.0510653294622898 295.375829603523 C1.0523127237268 306.9859860164022 1.0536092694826493 318.59614242356065 1.054931640625 330.206298828125 C1.055062399683493 331.3616814709175 1.0551931587419858 332.5170641137101 1.0553278801962733 333.70745835173875 C1.0595932466580962 371.19236807156494 1.06710754531764 408.6772762892035 1.076297220773995 446.1621850980446 C1.085719553411991 484.66582016885184 1.091883056955112 523.1694544075367 1.0939149900805205 561.6730906118173 C1.0942031673059773 567.1048709009347 1.0945288047103077 572.5366511872097 1.0948772430419922 577.9684314727783 C1.0949446660513331 579.0375393713406 1.095012089060674 580.1066472699027 1.0950815551914275 581.2081523775123 C1.096265703446079 598.4545010038916 1.1009102912066737 615.7008470658354 1.1068320339545608 632.94719464425 C1.1127045199600616 650.2633793730615 1.114971695447366 667.5795615461527 1.1135013774037361 684.8957472369075 C1.112737745911545 695.1979575278566 1.1147956319421155 705.5001585028635 1.1207975430879742 715.8023671207484 C1.1245275054659487 722.6708068774852 1.1246778195711613 729.5392404837611 1.1218318135943264 736.4076806532685 C1.1203116610995494 740.3298060028035 1.1204288538556284 744.2519136476209 1.1248831823468208 748.1740371510386 C1.1296287682273487 752.3842797444639 1.1267667978145255 756.5944811022827 1.1230478286743164 760.8047246932983 C1.12567484229794 762.0422567054629 1.1283018559217908 763.2797887176275 1.1310084760189056 764.5548216998577 C1.128761182725384 765.6651004895568 1.1265138894318625 766.7753792792558 1.1241984963417053 767.919302880764 C1.124354476965891 768.8837310805544 1.1245104575903042 769.8481592803448 1.1246711649000645 770.8418125770986 C1 773 1 773 0 774 C-2.089249789386713 774.0988476500256 -4.181911706992196 774.125557205731 -6.27349853515625 774.1258411407471 C-6.939572014808618 774.1272945815325 -7.605645494460987 774.1287480223178 -8.291903018951416 774.1302455067635 C-10.55172061123153 774.1339311161466 -12.811471825226818 774.1304073292524 -15.0712890625 774.1269836425781 C-16.696611125063555 774.1281344522836 -18.321932928181923 774.1297217024236 -19.947254180908203 774.1317108869553 C-24.435291291942804 774.1359097376876 -28.923307311904864 774.1338110295278 -33.41134452819824 774.1307246685028 C-38.243021876506646 774.1284730348256 -43.07469545756089 774.1319489938805 -47.9063720703125 774.1347045898438 C-57.38022675506954 774.1391638306736 -66.854073541876 774.1381851389934 -76.32792854309082 774.1352919489145 C-84.02383616246061 774.1330385171358 -91.71974155986777 774.1327251312626 -99.4156494140625 774.1338157653809 C-101.0552515876293 774.1340456149354 -101.0552515876293 774.1340456149354 -102.72797703742981 774.1342801079154 C-104.94814777439365 774.1345998157666 -107.16831851071333 774.1349240285723 -109.38848924636841 774.135252699256 C-130.23351887296621 774.1381079418488 -151.0785441102521 774.1348197761788 -171.92357301712036 774.1294523328543 C-189.83056129416832 774.1249842544084 -207.7375430899583 774.1257601745475 -225.64453125 774.13037109375 C-246.4122210881403 774.1357160772669 -267.17990707389094 774.1378332472319 -287.9475975036621 774.1347588300705 C-290.1598485304846 774.1344402626693 -292.3720995579156 774.134125892387 -294.5843505859375 774.1338157653809 C-295.672974331379 774.1336614898593 -296.7615980768203 774.1335072143376 -297.8832104206085 774.1333482638001 C-305.57468841730565 774.1324828793583 -313.26616398149804 774.1339464430149 -320.9576416015625 774.1362953186035 C-330.32406737253314 774.1390926765758 -339.6904847576732 774.1383564227148 -349.0569095611572 774.133014574647 C-353.8407245572423 774.130376685852 -358.6245255447127 774.1293739635593 -363.40834045410156 774.1326637268066 C-367.7802952235879 774.1356249080067 -372.1522228867077 774.1340368830085 -376.52417516708374 774.1286861747503 C-378.1129813620905 774.1275612201143 -379.70178980791934 774.1281548788105 -381.2905945777893 774.1305619627237 C-383.43593029856675 774.1335650098872 -385.5811708771878 774.1305224725663 -387.72650146484375 774.1258411407471 C-388.922458152771 774.1256787884236 -390.1184148406983 774.1255164361 -391.35061264038086 774.1253491640091 C-394 774 -394 774 -395 773 C-395.0969803795117 771.5912908431831 -395.1244739095298 770.177734159211 -395.1241984963417 768.7656907439232 C-395.1264457896352 767.8446230247616 -395.12869308292875 766.9235553056002 -395.1310084760189 765.9745764434338 C-395.1283814623953 764.9488180294633 -395.12575444877143 763.9230596154928 -395.1230478286743 762.8662176132202 C-395.12420167297114 761.7828162369132 -395.1253555172682 760.6994148606062 -395.1265443265438 759.5831831395626 C-395.1292196080499 755.9037427168623 -395.12468138135 752.2243448802268 -395.12025451660156 748.5449066162109 C-395.1206900330326 745.900045383236 -395.1215221896862 743.2551870077975 -395.12284368276596 740.6103263497353 C-395.1249232632756 734.834598893856 -395.12326373042947 729.0588817081431 -395.1192054748535 723.2831554412842 C-395.11318762747806 714.6947687173528 -395.11286806732573 706.1063885131113 -395.1137474635616 697.518000065349 C-395.11506356381346 683.0732258782976 -395.11171162818755 668.6284562539989 -395.1057300567627 654.1836833953857 C-395.0998198203274 639.874607492873 -395.09596548464106 625.565533489318 -395.094877243042 611.2564563751221 C-395.0948085034033 610.3678768289323 -395.09473976376466 609.4792972827423 -395.09466894110665 608.5637910836376 C-395.0943306236684 604.0514312543462 -395.0940292341436 599.5390714233895 -395.09374206513166 595.0267115905881 C-395.09163977709363 563.0377445831658 -395.0848971916396 531.0487800602876 -395.075439453125 499.059814453125 C-395.0662600549356 467.97648125454134 -395.0591739772965 436.8931487349655 -395.054931640625 405.809814453125 C-395.0548001144548 404.8522561397683 -395.05466858828436 403.89469782641163 -395.0545330764726 402.9081225944683 C-395.0532145946456 393.29222286833215 -395.05193877492184 383.6763231369241 -395.0506942172069 374.06042340095155 C-395.0481577750138 354.4704630984436 -395.04533652250507 334.8805028403569 -395.04234313964844 315.29054260253906 C-395.0422058496904 314.38976149273105 -395.04206855973234 313.48898038292305 -395.04192710947245 312.5609028758481 C-395.0327212293457 252.37393421591662 -395.01687542579566 192.18696693814968 -395 132 C-394.6700000000001 132 -394.3399999999999 132 -394 132 C-393.90403952478846 181.30433534565702 -393.8083429415583 230.60867119470686 -393.7139892578125 279.9130096435547 C-393.7125795202703 280.6496276471112 -393.7111697827279 281.3862456506677 -393.7097173258662 282.14518541190773 C-393.6790381437934 298.1765101239373 -393.6484046152136 314.20783492290286 -393.61781772971153 330.2391598112881 C-393.60280490138166 338.10760069761324 -393.5877820466508 345.976041564781 -393.57275390625 353.844482421875 C-393.5712590635567 354.627242358094 -393.5697642208636 355.41000229431324 -393.56822407990694 356.2164822285995 C-393.52027896236154 381.3200412731859 -393.471679437954 406.4235989957191 -393.42271865159273 431.52715607825667 C-393.3721598501302 457.45191517985404 -393.3223048147256 483.3766755503142 -393.27326389960945 509.3014375695493 C-393.2662431951235 513.0126668425135 -393.25921491817667 516.7238961011013 -393.25218200683594 520.4351253509521 C-393.25079885635523 521.165130295162 -393.2494157058745 521.895135239372 -393.24799064174294 522.6472615455277 C-393.2262291004272 534.1225876670368 -393.20378363642976 545.5979123397905 -393.18104265630245 557.073236557655 C-393.15786547694256 568.7767733988334 -393.1355024837019 580.4803116137448 -393.1138302087784 592.183851338923 C-393.10219416055065 598.4572085418869 -393.09028017134483 604.7305648594697 -393.0773754119873 611.0039196014404 C-392.96849820086277 664.6693701029944 -393 718.3342495603351 -393 772 C-263.30999999999995 772 -133.6199999999999 772 0 772 C0 517.24 0 262.47999999999996 0 0 Z " fill="#C65E18" stroke="none" stroke-width="1" /><path d="M0 0 C48.50999999999999 0 97.01999999999998 0 147 0 C147 10 147 10 145.1875 13.0625 C141.75274356004547 16.10471284681688 138.6429704377332 16.26685692902521 134.15234375 16.234375 C132 16 132 16 128.375 14.5 C121.70570964800675 11.77997569957921 113.69524573792614 11.633850099457334 106.95703125 14.125 C106.0018359375 14.578750000000014 105.04664062500001 15.032499999999999 104.0625 15.5 C96.76134065385844 18.879449087272405 88.86003263459372 19.833183502344752 81.04736328125 17.38916015625 C78.44199421647556 16.39412188332713 75.89683761566164 15.284509101161603 73.344482421875 14.161865234375 C66.2202038307367 11.088298660143266 60.83283322085964 10.489438322922808 53.55078125 13.359375 C51.66786267486128 14.177547952292429 49.79147351191807 15.009362850447388 47.916015625 15.844482421875 C39.84122540633169 19.22840856594459 30.54924962588649 19.832336654870943 22.34375 16.52734375 C21.240312500000016 16.023320312500005 20.136875000000003 15.519296875000009 19 15 C14.939968408374398 13.932243660155166 10.869603119348 13.711095531172305 6.6875 13.4375 C5.433242187500014 13.353710937500011 4.178984374999999 13.269921874999994 2.88671875 13.18359375 C1.9341015624999898 13.123007812499992 0.981484375000008 13.062421875000013 0 13 C0 8.710000000000008 0 4.4199999999999875 0 0 Z " fill="#6DB736" stroke="none" stroke-width="1" /><path d="M0 0 C48.180000000000064 0 96.3599999999999 0 146 0 C146 10 146 10 144.1875 13.0625 C140.73483622571143 16.120573628655592 137.6003948937132 16.26697036024342 133.0859375 16.234375 C131 16 131 16 127.875 14.5 C122.29196822190102 11.854736651834685 115.99856420404399 12.272113552705406 110 13 C106.97538513314385 14.078289741333919 106.97538513314385 14.078289741333919 104.125 15.5 C96.59909042807931 18.988104170784027 88.00410324737322 19.81911677463401 79.98388671875 17.38916015625 C77.35410387429738 16.40404130638754 74.79246011195892 15.294182894383795 72.223388671875 14.161865234375 C66.8706980687482 11.828094971412071 62.75023689890031 10.673022254099948 57 12 C54.55724791476882 12.961626386493691 52.1549047320907 13.952904418663735 49.75 15 C38.52442813879361 19.87576771007963 29.053335797343152 18.646506837469474 17.5546875 14.95703125 C11.716827814580938 13.385299796233312 6.051785542483003 13.247011654795216 0 13 C0 8.710000000000008 0 4.4199999999999875 0 0 Z " fill="#6DB736" stroke="none" stroke-width="1" /><path d="M0 0 C8.381189497550963 3.913071917730747 16.07832420529064 4.4756670013806 24.9375 1.6875 C27.53360178167611 0.7016385639204543 29.89048932141634 -0.4218058807215357 32.375 -1.6875 C40.68485478486423 -4.645244923426247 47.95751824693343 -3.449117150348002 55.8203125 0.10546875 C61.0800804411374 2.2038779111854865 66.63546445092379 0.886046620257332 72.0625 0 C72.1440393338222 1.5824670712164277 72.2019355741038 3.166162727611294 72.25 4.75 C72.28480468750001 5.6317187500000045 72.31960937500003 6.513437500000009 72.35546875 7.421875 C72.00512147390464 10.504931029639238 71.20251467173796 11.785159640439048 69.0625 14 C65.9450733461988 15.039142217933744 63.760459793246014 15.135849225779083 60.48963928222656 15.153900146484375 C59.33014266967774 15.162500610351572 58.17064605712892 15.17110107421874 56.97601318359375 15.179962158203125 C55.0660153198242 15.186352081298821 55.0660153198242 15.186352081298821 53.117431640625 15.19287109375 C51.76388845157595 15.200773980262369 50.4103473581103 15.209043048157952 49.05680847167969 15.2176513671875 C44.612111455668696 15.243840996076813 40.1674051368733 15.259171857172845 35.72265625 15.2734375 C34.19260591164016 15.27879766704973 32.662555633941565 15.284175177220845 31.132505416870117 15.289569854736328 C24.769831057502813 15.311190446676733 18.407159215750312 15.329928845124243 12.04445743560791 15.341192245483398 C2.923382241071863 15.357445122076001 -6.197267928041015 15.390664149875505 -15.31818288564682 15.447593092918396 C-21.730991779917076 15.486257137965794 -28.14368679712544 15.50582046413598 -34.5566092133522 15.511112809181213 C-38.387678764525646 15.514770019901675 -42.21829468110508 15.526830178091927 -46.049238204956055 15.559215545654297 C-49.651885964857286 15.5892361645613 -53.25380414635424 15.595630252211407 -56.856550216674805 15.583831787109375 C-58.80959767878261 15.58350503438254 -60.762599721039635 15.608008617767524 -62.715484619140625 15.633209228515625 C-64.458959274292 15.620731506347653 -64.458959274292 15.620731506347653 -66.23765563964844 15.608001708984375 C-67.24773146629335 15.61131185531616 -68.25780729293822 15.614622001647945 -69.29849147796631 15.618032455444336 C-72.93700827667129 14.765924001642844 -73.98127690423854 13.099268127244386 -75.9375 10 C-76.328125 7.10546875 -76.328125 7.10546875 -76.1875 4.1875 C-76.15140625000001 3.211679687500009 -76.11531249999999 2.2358593749999898 -76.078125 1.23046875 C-76.03171875000001 0.49441406249999886 -75.98531249999999 -0.24164062500000227 -75.9375 -1 C-56.96495640196471 -1.7012439112210131 -56.96495640196471 -1.7012439112210131 -49.19140625 2.09765625 C-41.82474409544196 5.04687454757871 -33.956262630946696 2.8962180373051467 -26.9375 0 C-26.30585937500001 -0.28617187500000796 -25.674218750000023 -0.5723437499999875 -25.0234375 -0.8671875 C-16.282311522924772 -4.6442172431806625 -8.54250393509443 -4.019442897157887 0 0 Z " fill="#D32F10" stroke="none" stroke-width="1" /><path d="M0 0 C12.56280640479713 4.435300028933597 20.59024060671618 4.064981606191083 32.76171875 -1.6484375 C38.54160088302933 -3.928755878595382 44.58122043493631 -4.470155780879651 50.4296875 -2.0859375 C51.739907702229175 -1.3772970015180306 53.03900108147991 -0.6475676893191462 54.32421875 0.10546875 C59.45530567125002 2.568820752025715 65.77907587362824 0.9014040210619498 71.1875 0 C71.81467770034851 7.996515679442496 71.81467770034851 7.996515679442496 69.3125 12 C66.04511278699692 15.075187965179254 64.21089531025132 15.12928553091271 59.81755065917969 15.153900146484375 C58.67770217895509 15.162500610351572 57.53785369873049 15.17110107421874 56.36346435546875 15.179962158203125 C55.10680969238274 15.18422210693359 53.85015502929696 15.188482055664053 52.555419921875 15.19287109375 C50.57730064392081 15.205137329101547 50.57730064392081 15.205137329101547 48.55921936035156 15.2176513671875 C44.17882330047678 15.243876409927736 39.79841765316405 15.25917915726103 35.41796875 15.2734375 C33.910540834439644 15.278796924179801 32.40311298306574 15.284174431896332 30.89568519592285 15.289569854736328 C24.625699842674067 15.311199016837861 18.355717073093047 15.329936141365351 12.08570384979248 15.341192245483398 C3.0971696514034193 15.357434378812854 -5.890932459278702 15.390617571564974 -14.879303753376007 15.447593092918396 C-21.197841360854 15.486280860105836 -27.516263341893364 15.505823503671877 -33.83491629362106 15.511112809181213 C-37.609585410209775 15.51476785393271 -41.38379373715452 15.52680428641051 -45.158334732055664 15.559215545654297 C-48.71008716706933 15.58927652333557 -52.261099555643796 15.595615785741785 -55.81295204162598 15.583831787109375 C-57.735997991468366 15.583505631963533 -59.6589981280199 15.607984573863632 -61.581878662109375 15.633209228515625 C-70.98584454153615 15.565085764348964 -70.98584454153615 15.565085764348964 -74.09574890136719 12.630767822265625 C-76.03778183353461 9.654775698657915 -76.35903511092329 8.198026663849504 -76.125 4.6875 C-76.07988281250005 3.8044921874999886 -76.03476562500009 2.9214843750000057 -75.98828125 2.01171875 C-75.93027343750009 1.3478515625000114 -75.87226562499995 0.6839843749999943 -75.8125 0 C-67.5887987984313 -2.7995578558531804 -61.65674262708876 -2.94249114140041 -53.5625 0.5 C-44.630177393817576 4.116450799950883 -36.99745189701207 4.539511846076607 -28.070556640625 0.840087890625 C-27.42852294921886 0.5628588867187432 -26.78648925781249 0.28562988281248636 -26.125 0 C-16.001633786903767 -4.365471198286542 -10.151067261032722 -3.5986429955442816 0 0 Z " fill="#D32F10" stroke="none" stroke-width="1" /><path d="M0 0 C34.98000000000002 0 69.96000000000004 0 106 0 C106 243.54000000000002 106 487.08000000000004 106 738 C105.67000000000002 738 105.34000000000003 738 105 738 C104.90343006714738 690.1600976574061 104.80741325565509 642.3201942416274 104.7139892578125 594.4802856445313 C104.7125795202702 593.7584689142927 104.71116978272795 593.0366521840542 104.70971732586622 592.2929622195661 C104.67899466445482 576.5607614591293 104.64836107956239 560.8285605263998 104.61781772971153 545.0963594168425 C104.60281284127706 537.3679505168595 104.58778851380566 529.6395416547214 104.57275390625 521.9111328125 C104.5712590635568 521.1425513476506 104.56976422086359 520.3739698828011 104.56822407990694 519.5820980705321 C104.52370159844986 496.69494056994654 104.4781475093173 473.80778532985744 104.43177552521229 450.92063150554895 C104.35991531182907 415.4451340157941 104.28983880834778 379.9696333660038 104.22289651632309 344.4941262304783 C104.22013169937514 343.02904157446375 104.21736481132041 341.56395692235617 104.21459585428238 340.0988722741604 C104.0570097982627 256.71233928487123 103.95542391821982 173.32610181885343 103.9744873046875 60.34832763671875 C103.97486097663642 58.92798827037217 103.97486097663642 58.92798827037217 103.97524219751358 57.478955179452896 C103.98032587744308 38.985968203398016 103.99066560821404 20.49298585998673 104 2 C70.34000000000003 2 36.68000000000001 2 2 2 C2 6.289999999999992 2 10.580000000000013 2 15 C31.04000000000002 15 60.079999999999984 15 90 15 C90.32999999999998 13.680000000000007 90.65999999999997 12.360000000000014 91 11 C91 257.51 91 504.02 91 758 C90.67000000000002 758 90.34000000000003 758 90 758 C90 513.47 90 268.94 90 17 C60.30000000000001 17 30.600000000000023 17 0 17 C0 11.389999999999986 0 5.780000000000001 0 0 Z " fill="#F9761A" stroke="none" stroke-width="1" /><path d="M0 0 C28.379999999999995 0 56.75999999999999 0 86 0 C86 0.3300000000000125 86 0.6599999999999966 86 1 C58.28 1 30.560000000000002 1 2 1 C1.9847103450022985 21.453108845430535 1.9847103450022985 21.453108845430535 1.9744873046875 41.906219482421875 C1.9742178910970694 42.651671717017905 1.9739484775066387 43.39712395161391 1.9736708998680115 44.16516564786434 C1.9439882778839461 129.0784694997206 2.0676344214004985 213.99143679965698 2.21875 301.3046875 C2.2215142965864914 302.90348978824954 2.2242785215950676 304.50229207662284 2.2270426750183105 306.10109436511993 C2.2948557875032236 345.3036261121706 2.3650597838236536 384.50615347044754 2.4363080263137817 423.7086791098118 C2.48245135545271 449.0979398669233 2.5279063870401046 474.487201764646 2.57275390625 499.87646484375 C2.5758018716903734 501.601523598066 2.5788498545689436 503.3265823523511 2.5818978548049927 505.05164110660553 C2.6066929358106705 519.0865560977552 2.6314472156548874 533.1214711608673 2.6561916917562485 547.1563862413168 C2.768964874328873 611.1042608593099 2.8846969949226633 675.0521297912153 3 739 C121.47 739.33 239.94 739.66 362 740 C362 740.33 362 740.66 362 741 C242.53999999999996 741 123.07999999999998 741 0 741 C0 496.47 0 251.94 0 0 Z " fill="#261610" stroke="none" stroke-width="1" /><path d="M0 0 C48.180000000000064 0 96.3599999999999 0 146 0 C145.67000000000007 2.6399999999999864 145.33999999999992 5.280000000000001 145 8 C144.67000000000007 6.680000000000007 144.33999999999992 5.360000000000014 144 4 C97.47000000000003 4.3300000000000125 50.940000000000055 4.659999999999997 3 5 C2.339999999999918 7.310000000000002 1.6800000000000637 9.620000000000005 1 12 C0.6700000000000728 12 0.33999999999991815 12 0 12 C0 8.039999999999992 0 4.0800000000000125 0 0 Z " fill="#43971E" stroke="none" stroke-width="1" /><path d="M0 0 C48.50999999999999 0 97.01999999999998 0 147 0 C147 0.9900000000000091 147 1.9799999999999898 147 3 C143.81218141556053 4.062606194813156 141.55989021964 4.123190087834928 138.2104034423828 4.1202545166015625 C137.0030554199219 4.121629180908201 135.79570739746094 4.123003845214839 134.55177307128906 4.124420166015625 C133.2120053677598 4.120881050009416 131.8722379142613 4.117246240838654 130.532470703125 4.113525390625 C129.1231791383417 4.113243350466973 127.71388742648674 4.113401582162254 126.30459594726563 4.1139678955078125 C122.47637045591728 4.1142552130277465 118.64817619501957 4.108369047424617 114.81995797157288 4.101393938064575 C110.820093009944 4.095149517010668 106.82022736018587 4.094555736818705 102.82035827636719 4.0933685302734375 C95.24497586207718 4.09025843372396 87.66960785145397 4.082049361514379 80.09423178434372 4.072019040584564 C71.47038631800712 4.0608479413323835 62.84654016966897 4.055344936193535 54.222689270973206 4.0503236055374146 C36.48178467626278 4.039866495372991 18.740893495554474 4.022273253424913 1 4 C1 6.639999999999986 1 9.280000000000001 1 12 C0.6699999999999875 12 0.3400000000000034 12 0 12 C0 8.039999999999992 0 4.0800000000000125 0 0 Z " fill="#44961F" stroke="none" stroke-width="1" /><path d="M0 0 C12.56280640479713 4.435300028933597 20.59024060671618 4.064981606191083 32.76171875 -1.6484375 C38.54160088302933 -3.928755878595382 44.58122043493631 -4.470155780879651 50.4296875 -2.0859375 C51.73890968745013 -1.3778367838304746 53.03675489655575 -0.6481553200720498 54.3203125 0.10546875 C59.22208826366682 2.453809021714875 65.06158980823943 1.0251820383521135 70.1875 0 C69.08203125 1.48046875 69.08203125 1.48046875 67.1875 3 C64.26171875 3.36328125 64.26171875 3.36328125 60.875 3.3125 C59.76511718749998 3.308632812500008 58.655234374999964 3.3047656249999875 57.51171875 3.30078125 C54.10975300354335 2.992965312894057 51.40594613417943 2.1001390941230227 48.1875 1 C40.97596395712503 0.2841102906343167 32.10422161383144 0.29315574332065353 25.94921875 4.546875 C22.27810530438228 6.478493390056286 18.926256506842265 6.491516753424577 14.875 6.4375 C14.114614257812491 6.432827148437497 13.354228515624982 6.428154296874993 12.57080078125 6.42333984375 C6.760791924933301 6.26962268106405 3.1499748902710962 5.124521227207794 -1.8125 2 C-11.053370595481056 -1.4225446649929552 -18.589706097023964 -0.5456884148538279 -27.5625 3.125 C-29.8125 4 -29.8125 4 -31.8125 4 C-31.8125 4.659999999999997 -31.8125 5.319999999999993 -31.8125 6 C-41.33643893599833 6.4863287967318115 -48.933960103088566 5.707169261695782 -58.13671875 2.95703125 C-63.649516802985545 1.521711884451122 -69.13655702232836 1.1914314663632979 -74.8125 1 C-74.8125 3.969999999999999 -74.8125 6.939999999999998 -74.8125 10 C-75.14249999999993 10 -75.47250000000008 10 -75.8125 10 C-75.8125 6.699999999999989 -75.8125 3.4000000000000057 -75.8125 0 C-67.5887987984313 -2.7995578558531804 -61.65674262708876 -2.94249114140041 -53.5625 0.5 C-44.630177393817576 4.116450799950883 -36.99745189701207 4.539511846076607 -28.070556640625 0.840087890625 C-27.42852294921886 0.5628588867187432 -26.78648925781249 0.28562988281248636 -26.125 0 C-16.001633786903767 -4.365471198286542 -10.151067261032722 -3.5986429955442816 0 0 Z " fill="#771103" stroke="none" stroke-width="1" /><path d="M0 0 C1.875 1.125 1.875 1.125 3 3 C3.4375 6 3.4375 6 3 9 C1.5 10.875 1.5 10.875 -1 12 C-3.7206958846777525 12.233647547348284 -6.258661508057685 12.137066924597121 -9 12 C-8.896874999999909 12.886875000000003 -8.793750000000045 13.773750000000007 -8.6875 14.6875 C-9 18 -9 18 -11.0625 20.875 C-14.701627921007002 23.507560623707178 -16.598150016533737 23.570610183041907 -21 23 C-21.99000000000001 22.340000000000003 -22.980000000000018 21.680000000000007 -24 21 C-24.4375 14.875 -24.4375 14.875 -23 12 C-20.05859375 11.5859375 -20.05859375 11.5859375 -16.4375 11.375 C-15.239960937499973 11.300234375000002 -14.042421874999945 11.225468750000005 -12.80859375 11.1484375 C-11.41833984374989 11.074960937500009 -11.41833984374989 11.074960937500009 -10 11 C-10.329999999999927 10.340000000000003 -10.660000000000082 9.680000000000007 -11 9 C-11.375 6.0625 -11.375 6.0625 -11 3 C-7.54750266883093 -0.04632117456092999 -4.514165125280442 -0.5888041467757148 0 0 Z " fill="#FEC359" stroke="none" stroke-width="1" /><path d="M0 0 C7.170689931770653 -0.7091891141311635 12.391610871011835 -0.12968436470140432 18.9375 3 C27.318689497550963 6.913071917730747 35.01582420529064 7.4756670013806 43.875 4.6875 C46.471101781676055 3.7016385639204827 48.827989321416396 2.578194119278436 51.3125 1.3125 C59.61898751919961 -1.6440464051388517 66.8951273229477 -0.45298634816927574 74.75390625 3.10546875 C79.76358420366353 5.100627448067712 84.85871921672265 4.003176738200466 90 3 C90 3.990000000000009 90 4.97999999999999 90 6 C83.98718662678266 8.004271124405761 76.61285404986194 8.046977579038384 70.75 5.5 C69.38875000000002 4.757499999999993 69.38875000000002 4.757499999999993 68 4 C68 3.3400000000000034 68 2.680000000000007 68 2 C54.91035718809701 2.9409998560424526 54.91035718809701 2.9409998560424526 43 8 C42.670000000000016 8.659999999999997 42.34000000000003 9.319999999999993 42 10 C39.291052333038124 10.081449428739376 36.58458736588335 10.140706139240507 33.875 10.1875 C32.73417968749999 10.225205078124986 32.73417968749999 10.225205078124986 31.5703125 10.263671875 C26.647533465373044 10.327328500447777 23.22474715995378 9.82307870968873 19 7 C18.670000000000016 6.009999999999991 18.339999999999975 5.02000000000001 18 4 C11.730000000000018 3.3400000000000034 5.4599999999999795 2.680000000000007 -1 2 C-0.6700000000000159 1.3400000000000034 -0.339999999999975 0.6800000000000068 0 0 Z " fill="#861505" stroke="none" stroke-width="1" /><path d="M0 0 C1.1446874999999181 0.24750000000000227 1.1446874999999181 0.24750000000000227 2.3125 0.5 C5.485132571940994 1.090257222686688 8.216711638643346 0.9842391535532045 11.4375 0.75 C15 1 15 1 17.4375 2.625 C19.427696792076404 5.650099123956267 19.463827249023097 7.443991090822465 19 11 C17 13 17 13 14.6171875 13.1953125 C13.7122656250001 13.172109374999991 12.807343749999973 13.14890625000001 11.875 13.125 C10.50988281250011 13.097929687499999 10.50988281250011 13.097929687499999 9.1171875 13.0703125 C8.418515625000055 13.047109374999991 7.719843750000109 13.02390625000001 7 13 C6.670000000000073 11.680000000000007 6.339999999999918 10.360000000000014 6 9 C5.133749999999964 8.876249999999999 5.133749999999964 8.876249999999999 4.25 8.75 C1.3840696047354868 7.794689868245172 0.0009235951829396072 6.21530826609532 -2 4 C-1.3399999999999181 2.680000000000007 -0.6800000000000637 1.3600000000000136 0 0 Z " fill="#FEBD4C" stroke="none" stroke-width="1" /><path d="M0 0 C0.6973828124999955 0.013535156249986358 1.394765624999991 0.027070312500001137 2.11328125 0.041015625 C3.82585540864892 0.07620550497225054 5.5380294108119585 0.1300084503630785 7.25 0.1875 C7.25 2.1674999999999898 7.25 4.147500000000008 7.25 6.1875 C6.259999999999991 6.1875 5.27000000000001 6.1875 4.25 6.1875 C3.9818750000000023 6.971249999999998 3.7137500000000045 7.7549999999999955 3.4375 8.5625 C2.25 11.1875 2.25 11.1875 -0.75 13.1875 C-4.5765929234480325 13.911450012544236 -5.746519331016856 13.189798554988869 -9.0625 11 C-11.75 8.1875 -11.75 8.1875 -12.375 5.5625 C-11.75 3.1875 -11.75 3.1875 -10.1953125 1.55078125 C-6.827871930491398 -0.3265937639912124 -3.7421288828702757 -0.13794236902830903 0 0 Z " fill="#FEBF4F" stroke="none" stroke-width="1" /><path d="M0 0 C34.98000000000002 0 69.96000000000004 0 106 0 C106 0.3300000000000125 106 0.6599999999999966 106 1 C96.16676763270038 1.1727857656494791 86.33343426935085 1.3391561877951972 76.5 1.5 C75.77409667968749 1.5118772506713754 75.04819335937498 1.5237545013427791 74.30029296875 1.5359916687011719 C50.198518997883355 1.9282766338130841 26.105234941511185 2.130376871678834 2 2 C2 6.949999999999989 2 11.900000000000006 2 17 C1.339999999999975 17 0.6800000000000068 17 0 17 C0 11.389999999999986 0 5.780000000000001 0 0 Z " fill="#E3701C" stroke="none" stroke-width="1" /><path d="M0 0 C18.972543598035287 -0.7012439112210131 18.972543598035287 -0.7012439112210131 26.74609375 3.09765625 C33.41973568758664 5.769426245810251 40.445785910295626 4.206632228860059 46.91796875 1.734375 C49.925443939604406 0.6735769969125158 52.836697115491006 0.3365215834583921 56 0 C53 2 53 2 51 2 C50.91750000000002 2.6187500000000057 50.83499999999998 3.2375000000000114 50.75 3.875 C50 6 50 6 48.226318359375 7.1162109375 C45.85134384800966 8.05901253100177 44.17279671960878 8.257903706433694 41.62890625 8.265625 C40.80712890625 8.268203125000014 39.9853515625 8.270781249999999 39.138671875 8.2734375 C38.28853515624999 8.265703124999987 37.438398437499984 8.257968750000003 36.5625 8.25 C35.716230468749984 8.257734375000013 34.8699609375 8.265468749999997 33.998046875 8.2734375 C29.559282000112972 8.259533772905598 26.032713900275667 8.086743127042041 22 6 C22 5.340000000000003 22 4.680000000000007 22 4 C17.4161086001954 2.906847541930375 12.874889929856721 2.6771737516523615 8.1875 2.4375 C7.399238281250007 2.394316406249999 6.610976562500014 2.3511328124999977 5.798828125 2.306640625 C3.8660578496717335 2.2012167918002774 1.9330497358271828 2.10016906018069 0 2 C0 1.3400000000000034 0 0.6800000000000068 0 0 Z " fill="#941B08" stroke="none" stroke-width="1" /><path d="M0 0 C1.1736914062501 0.16435546875000284 1.1736914062501 0.16435546875000284 2.37109375 0.33203125 C3.156132812499891 0.4287109375 3.941171875000009 0.525390625 4.75 0.625 C6.80859375 1.14453125 6.80859375 1.14453125 8.80859375 3.14453125 C9.05859375 6.64453125 9.05859375 6.64453125 8.80859375 10.14453125 C6.427334629205006 12.525790370794908 5.701518370700342 12.48974766436561 2.43359375 12.58203125 C-1.2084800466666366 12.505665186521497 -1.9272525655187565 12.370948693841058 -4.81640625 9.89453125 C-6.19140625 7.14453125 -6.19140625 7.14453125 -6.12890625 5.01953125 C-4.654856480122135 2.0714317102442408 -3.4358379014861384 0.226606064803903 0 0 Z " fill="#FEC866" stroke="none" stroke-width="1" /><path d="M0 0 C2 1.125 2 1.125 3 3 C3.4375 6 3.4375 6 3 9 C0.651099994434162 11.818680006679017 -0.9062301526865895 11.988484404715905 -4.5625 12.4375 C-8 12 -8 12 -9.9375 10.375 C-11.28886723042956 7.354296779039842 -11.426962142439294 5.273376425367857 -11 2 C-7.189776868432546 -0.5401487543783077 -4.465291841787234 -0.5860695542345695 0 0 Z " fill="#FEC865" stroke="none" stroke-width="1" /><path d="M0 0 C3.679802876725091 0.35382719968509946 6.062245205958334 1.4909258319761847 9.25 3.3125 C9.4375 6.6875 9.4375 6.6875 9.25 10.3125 C5.737468541442979 12.654187639038014 4.385306444006915 12.808736773280827 0.25 12.3125 C-2.625 10.6875 -2.625 10.6875 -4.75 8.3125 C-5.1875 5.1875 -5.1875 5.1875 -4.75 2.3125 C-2.75 0.3125 -2.75 0.3125 0 0 Z " fill="#FEC55F" stroke="none" stroke-width="1" /><path d="M0 0 C1.875 1.125 1.875 1.125 3 3 C3.4375 6 3.4375 6 3 9 C0.6394263148374648 11.83268842219502 -0.8806618807375344 11.987438092709226 -4.5625 12.375 C-8 12 -8 12 -9.9375 10.875 C-11.54125059492958 8.044851891300823 -11.530837539694403 6.185025238166716 -11 3 C-7.54750266883093 -0.04632117456092999 -4.514165125280442 -0.5888041467757148 0 0 Z " fill="#FEC865" stroke="none" stroke-width="1" /><path d="M0 0 C0.9900000000000091 0.6599999999999966 1.9800000000000182 1.3199999999999932 3 2 C5.778130241743838 2.2501771736020544 8.409218070386032 2.379455707146832 11.1875 2.375 C11.953283691406341 2.37701416015625 12.719067382812455 2.3790283203125 13.508056640625 2.381103515625 C19.31992914185571 2.276334827336143 23.045253795670305 1.13463535375962 28 -2 C28.99000000000001 -1.5049999999999955 28.99000000000001 -1.5049999999999955 30 -1 C28.899320042623458 -0.1827828261670561 27.794302689548886 0.6285945146774452 26.6875 1.4375 C25.765175781250036 2.1161914062500102 25.765175781250036 2.1161914062500102 24.82421875 2.80859375 C19.44866442407556 6.319394755154065 12.151443525532159 5.881062343765649 6 5 C1.657992307639006 3.8375417684324873 -2.463766693831303 2.1490026118950993 -6.6015625 0.41015625 C-12.278451775250915 -1.9454265412248333 -17.521086836948143 -3.2757801738156047 -23.53515625 -1.0703125 C-25.258458599971846 -0.33429235052747686 -26.97055680323365 0.42874861505572426 -28.66796875 1.22265625 C-31.270579684679205 2.090193228226383 -32.46169241464577 1.9277951863708438 -35 1 C-21.816249606891233 -4.785971959358079 -13.398164681298113 -5.587666853387674 0 0 Z " fill="#B6230C" stroke="none" stroke-width="1" /><path d="M0 0 C0.32999999999992724 0.3300000000000125 0.6600000000000819 0.6599999999999966 1 1 C3.349872621004806 1.235277728431896 5.705560388114691 1.4138641686198525 8.0625 1.5625 C9.998027343749982 1.6881835937500114 9.998027343749982 1.6881835937500114 11.97265625 1.81640625 C13.47119140625 1.9072851562499977 13.47119140625 1.9072851562499977 15 2 C15 2.3300000000000125 15 2.6599999999999966 15 3 C5.476061064001669 3.4863287967318115 -2.121460103088566 2.707169261695782 -11.32421875 -0.04296875 C-16.837016802985545 -1.478288115548878 -22.32405702232836 -1.8085685336367021 -28 -2 C-28 0.9699999999999989 -28 3.9399999999999977 -28 7 C-28.329999999999927 7 -28.660000000000082 7 -29 7 C-29 3.6999999999999886 -29 0.4000000000000057 -29 -3 C-18.128281196100488 -6.701010656646673 -10.406939088773242 -4.72338753285095 0 0 Z " fill="#8E1806" stroke="none" stroke-width="1" /><path d="M0 0 C10.102177945107599 -0.9991165000655826 17.081195414876618 1.7020492261452773 26 6 C29.678991180236835 7.670216854831438 32.782353936998504 8.333664140023984 36.8125 8.625 C37.78832031249999 8.699765624999998 38.76414062499998 8.774531249999995 39.76953125 8.8515625 C40.50558593749997 8.900546875000003 41.241640625 8.949531250000007 42 9 C42 9.330000000000013 42 9.659999999999997 42 10 C39.291052333038124 10.081449428739376 36.58458736588335 10.140706139240507 33.875 10.1875 C32.73417968749999 10.225205078124986 32.73417968749999 10.225205078124986 31.5703125 10.263671875 C26.647533465373044 10.327328500447777 23.22474715995378 9.82307870968873 19 7 C18.670000000000016 6.009999999999991 18.339999999999975 5.02000000000001 18 4 C11.730000000000018 3.3400000000000034 5.4599999999999795 2.680000000000007 -1 2 C-0.6700000000000159 1.3400000000000034 -0.339999999999975 0.6800000000000068 0 0 Z " fill="#B2220C" stroke="none" stroke-width="1" /><path d="M0 0 C0.7012499999999875 0.2681249999999977 1.4025000000000034 0.5362499999999955 2.125 0.8125 C1.7949999999999875 3.1225000000000023 1.4650000000000034 5.4325000000000045 1.125 7.8125 C0.1349999999999909 8.142500000000013 -0.8549999999999898 8.472499999999997 -1.875 8.8125 C-1.875 9.472499999999997 -1.875 10.132499999999993 -1.875 10.8125 C-4.25 10.625 -4.25 10.625 -6.875 9.8125 C-8.1875 7.25 -8.1875 7.25 -8.875 4.8125 C-3.582692307692298 -0.23365384615385665 -3.582692307692298 -0.23365384615385665 0 0 Z " fill="#FEC65F" stroke="none" stroke-width="1" /><path d="M0 0 C0.5981249999999818 0.7837499999999977 1.1962500000000205 1.5674999999999955 1.8125 2.375 C3.910852490292143 5.145743231638548 3.910852490292143 5.145743231638548 7 7 C6.670000000000016 8.319999999999993 6.339999999999975 9.64 6 11 C3.6899999999999977 11.329999999999998 1.3799999999999955 11.659999999999997 -1 12 C-2.429449452689312 9.645612666158812 -3.086612612169972 8.51967567301989 -2.625 5.75 C-2.4187499999999886 5.172499999999999 -2.2124999999999773 4.594999999999999 -2 4 C-1.339999999999975 4 -0.6800000000000068 4 0 4 C0 2.680000000000007 0 1.3599999999999994 0 0 Z " fill="#FDBB44" stroke="none" stroke-width="1" /><path d="M0 0 C2.689427410366534 0.6466382844596978 5.226768101891139 1.337993425945541 7.70703125 2.578125 C12.551208230284374 2.739597566009479 16.935774628270337 2.5323763243459325 21.70703125 1.578125 C20.6015625 3.05859375 20.6015625 3.05859375 18.70703125 4.578125 C15.78125 4.94140625 15.78125 4.94140625 12.39453125 4.890625 C11.284648437499982 4.886757812500008 10.174765624999964 4.8828906249999875 9.03125 4.87890625 C5.70703125 4.578125 5.70703125 4.578125 2.78125 3.56640625 C-0.9221018273251502 2.3758751034774264 -4.327851835937054 2.356377868444156 -8.16796875 2.453125 C-9.200507812500064 2.4666601562499864 -9.200507812500064 2.4666601562499864 -10.25390625 2.48046875 C-11.933747133675297 2.5037998733843665 -13.61340621377417 2.5396617358116202 -15.29296875 2.578125 C-10.494966370288921 -1.5174671214200828 -6.001950196361122 -1.1042770378313662 0 0 Z " fill="#911806" stroke="none" stroke-width="1" /><path d="M0 0 C0.3300000000000125 0 0.6599999999999966 0 1 0 C1 4.289999999999992 1 8.580000000000013 1 13 C2.481132812499993 12.947792968750008 2.481132812499993 12.947792968750008 3.9921875 12.89453125 C5.2735156249999875 12.867460937499999 6.554843750000003 12.840390624999998 7.875 12.8125 C9.151171874999989 12.777695312499986 10.427343750000006 12.742890625000001 11.7421875 12.70703125 C12.817265625000005 12.8037109375 13.892343750000009 12.900390625 15 13 C15.990000000000009 14.485000000000014 15.990000000000009 14.485000000000014 17 16 C12.072629808383056 17.970948076646778 8.219791282546026 18.179992802846414 3 18 C2.6699999999999875 17.00999999999999 2.3400000000000034 16.02000000000001 2 15 C1.3400000000000034 14.669999999999987 0.6800000000000068 14.340000000000003 0 14 C0 9.379999999999995 0 4.759999999999991 0 0 Z " fill="#141B15" stroke="none" stroke-width="1" /><path d="M0 0 C0.660000000000025 0.3300000000000125 1.3199999999999932 0.6599999999999966 2 1 C0.3103999831682245 1.9799680097624162 -1.3815638106254937 2.9561144039557234 -3.0859375 3.91015625 C-4.6677033951303315 4.810794382125238 -6.214366351447552 5.77277858728479 -7.75 6.75 C-12.923186874382054 8.739687259377718 -19.16165777501169 9.238808228632024 -24.3359375 6.98046875 C-24.885078125000007 6.656914062499993 -25.434218750000014 6.333359374999986 -26 6 C-24.315839843749984 5.85304687499999 -24.315839843749984 5.85304687499999 -22.59765625 5.703125 C-14.26458523528845 4.896698772769838 -7.549975423597061 3.8412155663914973 0 0 Z " fill="#7C1205" stroke="none" stroke-width="1" /><path d="M0 0 C2.0234375 0.5546875 2.0234375 0.5546875 4.0234375 2.5546875 C4.2734375 6.0546875 4.2734375 6.0546875 4.0234375 9.5546875 C2.0234375 11.5546875 2.0234375 11.5546875 -0.140625 11.75 C-1.358789062499909 11.715195312499986 -1.358789062499909 11.715195312499986 -2.6015625 11.6796875 C-3.418828124999891 11.66164062499999 -4.236093750000009 11.643593750000008 -5.078125 11.625 C-5.704609375000018 11.601796874999991 -6.331093750000036 11.57859375000001 -6.9765625 11.5546875 C-6.9765625 11.224687499999987 -6.9765625 10.894687500000003 -6.9765625 10.5546875 C-4.92578125 10.326822916666657 -2.875 10.098958333333343 -0.82421875 9.87109375 C1.034839787113924 9.735821359015915 1.034839787113924 9.735821359015915 2.0234375 8.5546875 C2.0640758207578074 6.888516348928249 2.0661585013208423 5.220806551515807 2.0234375 3.5546875 C-0.7548170632412621 2.2669259714833743 -0.7548170632412621 2.2669259714833743 -3.9765625 1.5546875 C-7.249687934481926 3.19125021724102 -8.597161022777982 5.221133930046577 -9.9765625 8.5546875 C-10.7265625 6.3046875 -10.7265625 6.3046875 -10.9765625 3.5546875 C-8.185698137968984 -1.2658963980535987 -4.942741772707677 -0.673263829505018 0 0 Z " fill="#FEBE50" stroke="none" stroke-width="1" /><path d="M0 0 C0.6600000000000819 0.3300000000000125 1.3199999999999363 0.6599999999999966 2 1 C1.6700000000000728 3.6399999999999864 1.3399999999999181 6.280000000000001 1 9 C0.6700000000000728 9 0.33999999999991815 9 0 9 C0 7.349999999999994 0 5.699999999999989 0 4 C-5.444999999999936 4.990000000000009 -5.444999999999936 4.990000000000009 -11 6 C-11.660000000000082 7.97999999999999 -12.319999999999936 9.960000000000008 -13 12 C-13.329999999999927 12 -13.660000000000082 12 -14 12 C-14.125 5.25 -14.125 5.25 -13 3 C-10.05859375 2.5859375 -10.05859375 2.5859375 -6.4375 2.375 C-5.239960937499973 2.3002343750000023 -4.042421874999945 2.2254687500000045 -2.80859375 2.1484375 C-1.8817578124999272 2.0994531249999966 -0.9549218750000819 2.050468749999993 0 2 C0 1.3400000000000034 0 0.6800000000000068 0 0 Z " fill="#FEBA42" stroke="none" stroke-width="1" /><path d="M0 0 C-0.32999999999992724 1.6500000000000057 -0.6600000000000819 3.299999999999997 -1 5 C-3.3099999999999454 5 -5.619999999999891 5 -8 5 C-8.329999999999927 3.3499999999999943 -8.660000000000082 1.7000000000000028 -9 0 C-5.674652434801374 -1.1084491883995753 -3.3781742461255817 -0.8445435615314096 0 0 Z " fill="#FCBF56" stroke="none" stroke-width="1" /><path d="M0 0 C3.0831538542076373 -0.08733512515550501 6.165988270485826 -0.14050127262714796 9.25 -0.1875 C10.122695312500014 -0.2126367187499909 10.995390624999999 -0.23777343750001023 11.89453125 -0.263671875 C13.161035156249994 -0.2781738281250057 13.161035156249994 -0.2781738281250057 14.453125 -0.29296875 C15.615698242187506 -0.3165344238281307 15.615698242187506 -0.3165344238281307 16.8017578125 -0.340576171875 C19 0 19 0 23 3 C11.615000000000009 2.5049999999999955 11.615000000000009 2.5049999999999955 0 2 C0 1.3400000000000034 0 0.6800000000000068 0 0 Z " fill="#901804" stroke="none" stroke-width="1" /><path d="M0 0 C10.8900000000001 0 21.779999999999973 0 33 0 C33 0.3300000000000125 33 0.6599999999999966 33 1 C23.09999999999991 1.3300000000000125 13.200000000000045 1.6599999999999966 3 2 C2.339999999999918 4.310000000000002 1.6800000000000637 6.6200000000000045 1 9 C0.6700000000000728 9 0.33999999999991815 9 0 9 C0 6.030000000000001 0 3.0600000000000023 0 0 Z " fill="#63A92F" stroke="none" stroke-width="1" /><path d="M0 0 C1.2723046874999966 0.21462890624999886 1.2723046874999966 0.21462890624999886 2.5703125 0.43359375 C6.001921124127733 1.0003172699299796 9.436964637210849 1.536270097532281 12.875 2.0625 C14.027421874999987 2.2391015624999966 15.179843750000003 2.415703124999993 16.3671875 2.59765625 C17.236015624999993 2.730429687499992 18.104843749999986 2.8632031250000125 19 3 C19 3.3300000000000125 19 3.6599999999999966 19 4 C17.878515625000006 3.9651953124999864 17.878515625000006 3.9651953124999864 16.734375 3.9296875 C15.74953124999999 3.9116406249999898 14.764687500000008 3.893593750000008 13.75 3.875 C12.775468749999987 3.851796874999991 11.800937500000003 3.8285937500000102 10.796875 3.8046875 C7.950173154871038 4.0034795282911375 6.477277193121779 4.696169898356942 4 6 C1.75 5.125 1.75 5.125 0 4 C0.9900000000000091 3.009999999999991 1.9799999999999898 2.0200000000000102 3 1 C2.009999999999991 0.6699999999999875 1.0200000000000102 0.3400000000000034 0 0 Z " fill="#0A0B0F" stroke="none" stroke-width="1" /><path d="M0 0 C8.014262309974924 -0.48817841482079416 13.949122442545274 0.01162481598521481 21 4 C17.628956218587973 5.123681260470676 16.505237585489112 4.585183540199097 13.25 3.546875 C8.598980364028534 2.41641883847916 3.7649152589813752 2.297318193499649 -1 2 C-0.6700000000000159 1.3400000000000034 -0.339999999999975 0.6800000000000068 0 0 Z " fill="#7A1202" stroke="none" stroke-width="1" /><path d="M0 0 C0 0.3300000000000125 0 0.6599999999999966 0 1 C-1.6500000000000057 1 -3.3000000000000114 1 -5 1 C-5 1.6599999999999966 -5 2.319999999999993 -5 3 C-6.322677268819859 4.014052572761898 -7.657248312250971 5.0126825825374794 -9 6 C-9.659999999999997 6.990000000000009 -10.319999999999993 7.97999999999999 -11 9 C-12 8 -12 8 -12.3125 5.625 C-12 3 -12 3 -10.5 1.1875 C-6.87730458679826 -0.533280321270837 -3.9896189829629236 -0.19948094914815329 0 0 Z " fill="#FEB942" stroke="none" stroke-width="1" /><path d="M0 0 C0.660000000000025 0 1.3199999999999932 0 2 0 C1.670000000000016 1.6500000000000057 1.339999999999975 3.3000000000000114 1 5 C0.6700000000000159 4.340000000000003 0.339999999999975 3.680000000000007 0 3 C-8.579999999999984 3 -17.160000000000025 3 -26 3 C-26 2.6699999999999875 -26 2.3400000000000034 -26 2 C-17.420000000000016 2 -8.839999999999975 2 0 2 C0 1.3400000000000034 0 0.6800000000000068 0 0 Z " fill="#F3A82C" stroke="none" stroke-width="1" /><path d="M0 0 C0.6600000000000819 0.3299999999999983 1.3199999999999363 0.6599999999999966 2 1 C2 1.6599999999999966 2 2.319999999999993 2 3 C2.660000000000082 3 3.3199999999999363 3 4 3 C4 4.650000000000006 4 6.300000000000011 4 8 C2.0625 8.5625 2.0625 8.5625 0 9 C-1 8 -1 8 -1.125 4.5 C-1 1 -1 1 0 0 Z " fill="#EA9E23" stroke="none" stroke-width="1" /><path d="M0 0 C2.9700000000000273 0.3299999999999983 5.939999999999998 0.6599999999999966 9 1 C8.670000000000016 2.319999999999993 8.339999999999975 3.6400000000000006 8 5 C5.125 5.125 5.125 5.125 2 5 C1.339999999999975 4.340000000000003 0.6800000000000068 3.680000000000007 0 3 C0 2.010000000000005 0 1.019999999999996 0 0 Z " fill="#FDC25A" stroke="none" stroke-width="1" /><path d="M0 0 C0.6600000000000819 0.3299999999999983 1.3199999999999363 0.6599999999999966 2 1 C-6.07744874715263 9.815489749430526 -6.07744874715263 9.815489749430526 -12 11 C-8.422701280856472 6.338671365964473 -4.891326987811908 3.260884658541329 0 0 Z " fill="#F0B833" stroke="none" stroke-width="1" /><path d="M0 0 C0.32999999999992724 1.3199999999999932 0.6600000000000819 2.6399999999999864 1 4 C-3.619999999999891 4 -8.240000000000009 4 -13 4 C-13.329999999999927 3.3400000000000034 -13.660000000000082 2.680000000000007 -14 2 C-13.156953124999973 1.939414062499992 -12.313906249999945 1.8788281250000125 -11.4453125 1.81640625 C-10.349609375 1.7326171875000114 -9.25390625 1.6488281249999943 -8.125 1.5625 C-7.034453125000027 1.4812890624999966 -5.943906250000055 1.4000781249999932 -4.8203125 1.31640625 C-2.0527102888599984 1.1699829671886732 -2.0527102888599984 1.1699829671886732 0 0 Z " fill="#B0230D" stroke="none" stroke-width="1" /><path d="M0 0 C2.3099999999999454 0.6599999999999966 4.619999999999891 1.3199999999999932 7 2 C6.670000000000073 3.319999999999993 6.339999999999918 4.640000000000001 6 6 C4.349999999999909 5.670000000000002 2.7000000000000455 5.340000000000003 1 5 C0.6700000000000728 3.3499999999999943 0.33999999999991815 1.7000000000000028 0 0 Z " fill="#FEC259" stroke="none" stroke-width="1" /><path d="M0 0 C2.6399999999999864 0 5.279999999999973 0 8 0 C7.670000000000016 1.3199999999999932 7.339999999999975 2.6400000000000006 7 4 C5.019999999999982 4 3.0400000000000205 4 1 4 C0.6700000000000159 2.680000000000007 0.339999999999975 1.3599999999999994 0 0 Z " fill="#FEC45E" stroke="none" stroke-width="1" /><path d="M0 0 C1.6499999999999773 0 3.3000000000000114 0 5 0 C5 1.6500000000000057 5 3.299999999999997 5 5 C3.0625 5.5625 3.0625 5.5625 1 6 C0 5 0 5 -0.0625 2.4375 C-0.04187500000000455 1.6331250000000068 -0.021250000000009095 0.8287499999999994 0 0 Z " fill="#18130F" stroke="none" stroke-width="1" /><path d="M0 0 C1.3199999999999363 0 2.6400000000001 0 4 0 C4 1.6500000000000057 4 3.299999999999997 4 5 C2.6800000000000637 5.329999999999998 1.3599999999999 5.659999999999997 0 6 C-0.38218767082457816 4.343853426426705 -0.7139510172148675 2.675429756312255 -1 1 C-0.6700000000000728 0.6700000000000017 -0.33999999999991815 0.3400000000000034 0 0 Z " fill="#120E0F" stroke="none" stroke-width="1" /><path d="M0 0 C1.675429756312269 0.2860489827850188 3.343853426426733 0.6178123291753934 5 1 C5 2.319999999999993 5 3.6400000000000006 5 5 C3.3500000000000227 5 1.6999999999999886 5 0 5 C-0.5625 3.0625 -0.5625 3.0625 -1 1 C-0.6700000000000159 0.6700000000000017 -0.339999999999975 0.3400000000000034 0 0 Z " fill="#1B130E" stroke="none" stroke-width="1" /><path d="M0 0 C2.6399999999999864 0 5.279999999999973 0 8 0 C8 0.3299999999999983 8 0.6599999999999966 8 1 C10.310000000000002 1.3299999999999983 12.620000000000005 1.6599999999999966 15 2 C15 2.3299999999999983 15 2.6599999999999966 15 3 C10.050000000000011 3 5.100000000000023 3 0 3 C0 2.010000000000005 0 1.019999999999996 0 0 Z " fill="#3C2814" stroke="none" stroke-width="1" /><path d="M0 0 C0.660000000000025 0.3300000000000125 1.3199999999999932 0.6599999999999966 2 1 C-3.9196698140741546 4.39832896733887 -7.004550076581722 6.1295453689521935 -14 6 C-14 5.6699999999999875 -14 5.340000000000003 -14 5 C-13.408320312499995 4.806640625 -12.816640624999991 4.61328125 -12.20703125 4.4140625 C-8.773054937691313 3.2824748734317097 -5.391491908985074 2.166592301695772 -2.0625 0.75 C-1.3818749999999795 0.5024999999999977 -0.7012500000000159 0.25499999999999545 0 0 Z " fill="#6A1002" stroke="none" stroke-width="1" /><path d="M0 0 C1.015607036260576 2.5851815468451207 1.1471572920981998 3.646822498964326 0.0625 6.25 C-3.1538397395561333 8.979015536593067 -5.87128064825265 8.27073569519655 -10 8 C-10.329999999999984 7.340000000000003 -10.660000000000025 6.680000000000007 -11 6 C-8.360000000000014 6 -5.720000000000027 6 -3 6 C-3 5.340000000000003 -3 4.680000000000007 -3 4 C-2.339999999999975 4 -1.6800000000000068 4 -1 4 C-0.6700000000000159 2.680000000000007 -0.339999999999975 1.3600000000000136 0 0 Z " fill="#FEB63C" stroke="none" stroke-width="1" /><path d="M0 0 C1.9800000000000182 0.49500000000000455 1.9800000000000182 0.49500000000000455 4 1 C3.670000000000016 2.6500000000000057 3.339999999999975 4.299999999999997 3 6 C1.6800000000000068 5.670000000000002 0.36000000000001364 5.340000000000003 -1 5 C-0.6700000000000159 3.3499999999999943 -0.339999999999975 1.7000000000000028 0 0 Z " fill="#1A1311" stroke="none" stroke-width="1" /><path d="M0 0 C1.9800000000000182 0.49500000000000455 1.9800000000000182 0.49500000000000455 4 1 C3.6700000000000728 2.6500000000000057 3.339999999999918 4.299999999999997 3 6 C1.6800000000000637 5.670000000000002 0.35999999999989996 5.340000000000003 -1 5 C-0.6700000000000728 3.3499999999999943 -0.33999999999991815 1.7000000000000028 0 0 Z " fill="#1C1611" stroke="none" stroke-width="1" /><path d="M0 0 C2.6875 -0.3125 2.6875 -0.3125 6 0 C8.875 2.5 8.875 2.5 11 5 C8 6 8 6 5.95703125 5.0390625 C5.249335937500064 4.572421875000003 4.5416406249999 4.105781250000007 3.8125 3.625 C3.097070312499909 3.1635156250000023 2.3816406250000455 2.7020312500000045 1.64453125 2.2265625 C1.1018359375000273 1.821796875000004 0.5591406250000546 1.4170312499999937 0 1 C0 0.6700000000000017 0 0.3400000000000034 0 0 Z " fill="#1B1512" stroke="none" stroke-width="1" /><path d="M0 0 C0.32999999999992724 0 0.6600000000000819 0 1 0 C1 3.6299999999999955 1 7.259999999999991 1 11 C0.6700000000000728 11 0.33999999999991815 11 0 11 C0 7.3700000000000045 0 3.740000000000009 0 0 Z M-2 5 C-1.6700000000000728 5 -1.3399999999999181 5 -1 5 C-0.6700000000000728 7.969999999999999 -0.33999999999991815 10.939999999999998 0 14 C-0.9900000000000091 14 -1.9800000000000182 14 -3 14 C-2.6700000000000728 11.030000000000001 -2.339999999999918 8.060000000000002 -2 5 Z " fill="#231A15" stroke="none" stroke-width="1" /><path d="M0 0 C0 0.3299999999999983 0 0.6599999999999966 0 1 C-0.928124999999909 1.2681249999999977 -1.8562500000000455 1.5362499999999955 -2.8125 1.8125 C-7.1857493014888405 3.4417497397703585 -8.446761188730761 5.170141783096028 -11 9 C-11.3125 6.1875 -11.3125 6.1875 -11 3 C-7.49047762094483 -0.09663739328401277 -4.56545579611884 -0.318520171822243 0 0 Z " fill="#FEBF51" stroke="none" stroke-width="1" /><path d="M0 0 C0.3299999999999841 0.6599999999999966 0.660000000000025 1.3199999999999932 1 2 C-0.5778124999999932 1.8762499999999989 -0.5778124999999932 1.8762499999999989 -2.1875 1.75 C-6.537636693310418 2.0352548651351157 -7.931515300524467 3.024499685357071 -11 6 C-10.625 3.5625 -10.625 3.5625 -10 1 C-6.785487308314288 -0.6072563458428561 -3.5638746442172646 -0.05748184910028442 0 0 Z " fill="#FEBF51" stroke="none" stroke-width="1" /><path d="M0 0 C0.32999999999992724 0 0.6600000000000819 0 1 0 C1.125 2.875 1.125 2.875 1 6 C-1 8 -1 8 -3.3828125 8.1953125 C-4.2877343749999 8.172109374999991 -5.192656250000027 8.14890625000001 -6.125 8.125 C-7.490117187499891 8.097929687499999 -7.490117187499891 8.097929687499999 -8.8828125 8.0703125 C-9.581484374999945 8.047109374999991 -10.28015624999989 8.02390625000001 -11 8 C-11.329999999999927 7.340000000000003 -11.660000000000082 6.680000000000007 -12 6 C-11.077675781250036 6.017402343750007 -11.077675781250036 6.017402343750007 -10.13671875 6.03515625 C-8.924355468750036 6.048691406249986 -8.924355468750036 6.048691406249986 -7.6875 6.0625 C-6.886992187500027 6.0741015625000045 -6.086484375000055 6.085703125000009 -5.26171875 6.09765625 C-2.8313866610349123 6.096578545537682 -2.8313866610349123 6.096578545537682 0 5 C0 3.3499999999999943 0 1.6999999999999886 0 0 Z " fill="#FEB63D" stroke="none" stroke-width="1" /><path d="M0 0 C1.3199999999999363 0 2.6400000000001 0 4 0 C4 1.6500000000000057 4 3.299999999999997 4 5 C2.349999999999909 4.670000000000002 0.7000000000000455 4.340000000000003 -1 4 C-0.6700000000000728 2.680000000000007 -0.33999999999991815 1.3599999999999994 0 0 Z " fill="#0E0B0E" stroke="none" stroke-width="1" /><path d="M0 0 C2.6400000000001 0 5.279999999999973 0 8 0 C8 0.3300000000000125 8 0.6599999999999966 8 1 C6.349999999999909 1.3300000000000125 4.7000000000000455 1.6599999999999966 3 2 C2.339999999999918 4.310000000000002 1.6800000000000637 6.6200000000000045 1 9 C0.6700000000000728 9 0.33999999999991815 9 0 9 C0 6.030000000000001 0 3.0600000000000023 0 0 Z " fill="#64C02D" stroke="none" stroke-width="1" /><path d="M0 0 C5.538461538461547 -0.3692307692307679 5.538461538461547 -0.3692307692307679 7.875 1.5 C8.246249999999975 1.9950000000000045 8.617500000000007 2.490000000000009 9 3 C5.625 3.1875 5.625 3.1875 2 3 C1.339999999999975 2.009999999999991 0.6800000000000068 1.0200000000000102 0 0 Z " fill="#9A1B08" stroke="none" stroke-width="1" /><path d="M0 0 C0 0.6599999999999966 0 1.3199999999999932 0 2 C-2.3099999999999454 2.3300000000000125 -4.619999999999891 2.6599999999999966 -7 3 C-7.329999999999927 2.3400000000000034 -7.660000000000082 1.6800000000000068 -8 1 C-4.932511255165082 -0.8624038807926411 -3.402544889036335 -1.215194603227303 0 0 Z " fill="#61B431" stroke="none" stroke-width="1" /><path d="M0 0 C0.6600000000000819 0.3300000000000125 1.3199999999999363 0.6599999999999966 2 1 C-0.75 3.0625 -0.75 3.0625 -4 5 C-6.203125 4.62109375 -6.203125 4.62109375 -8 4 C-6.713492938423997 3.302892685239101 -5.420593351338084 2.6175712431401337 -4.125 1.9375 C-3.4057031249999454 1.554648437499992 -2.686406249999891 1.1717968750000125 -1.9453125 0.77734375 C-1.3033593749999 0.5208203125000068 -0.6614062500000273 0.26429687500001364 0 0 Z " fill="#B0210C" stroke="none" stroke-width="1" /><path d="M0 0 C2.6875 0.875 2.6875 0.875 5 2 C4.670000000000073 2.6599999999999966 4.339999999999918 3.319999999999993 4 4 C1.6900000000000546 3.3400000000000034 -0.6199999999998909 2.680000000000007 -3 2 C-2.009999999999991 1.3400000000000034 -1.0199999999999818 0.6800000000000068 0 0 Z " fill="#5FBD2F" stroke="none" stroke-width="1" /><path d="M0 0 C0.6600000000000819 0.3299999999999983 1.3199999999999363 0.6599999999999966 2 1 C2 2.6500000000000057 2 4.300000000000011 2 6 C1.009999999999991 6 0.01999999999998181 6 -1 6 C-1.0427210013208423 4.333880948484193 -1.0406383207578074 2.666171151071751 -1 1 C-0.6700000000000728 0.6700000000000017 -0.33999999999991815 0.3400000000000034 0 0 Z " fill="#25170C" stroke="none" stroke-width="1" /><path d="M0 0 C0.660000000000025 0.3299999999999983 1.3199999999999932 0.6599999999999966 2 1 C2 2.6500000000000057 2 4.300000000000011 2 6 C1.009999999999991 6 0.01999999999998181 6 -1 6 C-1.0427210013208992 4.333880948484193 -1.0406383207578642 2.666171151071751 -1 1 C-0.6700000000000159 0.6700000000000017 -0.339999999999975 0.3400000000000034 0 0 Z " fill="#26190E" stroke="none" stroke-width="1" /><path d="M0 0 C-0.32999999999992724 1.6500000000000057 -0.6600000000000819 3.299999999999997 -1 5 C-1.4331250000000182 4.546250000000001 -1.8662500000000364 4.092500000000001 -2.3125 3.625 C-4.107983416481375 1.799756662370541 -4.107983416481375 1.799756662370541 -7 0 C-2.25 -1.125 -2.25 -1.125 0 0 Z " fill="#FEC141" stroke="none" stroke-width="1" /><path d="M0 0 C0.6600000000000819 0.6599999999999966 1.3199999999999363 1.3199999999999932 2 2 C-3.41538461538471 3.2307692307692264 -3.41538461538471 3.2307692307692264 -6.375 2.0625 C-6.911250000000109 1.7118750000000063 -7.447499999999991 1.3612499999999983 -8 1 C-5.237499644774289 -0.3812501776128556 -3.0526890052622093 -0.19079306282888808 0 0 Z " fill="#1B1410" stroke="none" stroke-width="1" /><text fill="black" font-size="32px" font-weight="bold" x="50" y="80">FastBite Menu</text><text fill="gray" font-size="18px" x="50" y="120">Delicious meals made fresh</text><rect fill="white" height="600" rx="10" ry="10" stroke="black" stroke-width="2" width="280" x="80" y="200" /><rect fill="white" height="600" rx="10" ry="10" stroke="black" stroke-width="2" width="280" x="420" y="200" /><text fill="darkred" font-size="20px" font-weight="bold" x="90" y="240">Burgers</text><text fill="black" font-size="14px" font-weight="bold" x="90" y="265">Classic Beef - $7.99</text><text fill="gray" font-size="12px" x="90" y="283">Juicy beef patty with cheese</text><text fill="black" font-size="14px" font-weight="bold" x="90" y="305">BBQ Bacon - $8.99</text><text fill="gray" font-size="12px" x="90" y="323">Beef, bacon, and smoky BBQ sauce</text><text fill="black" font-size="14px" font-weight="bold" x="90" y="345">Veggie Delight - $6.99</text><text fill="gray" font-size="12px" x="90" y="363">Grilled veggie patty with fresh greens</text><text fill="black" font-size="14px" font-weight="bold" x="90" y="385">Spicy Chicken - $7.49</text><text fill="gray" font-size="12px" x="90" y="403">Crispy chicken with spicy mayo</text><text fill="darkred" font-size="20px" font-weight="bold" x="90" y="460">Sides</text><text fill="black" font-size="14px" font-weight="bold" x="90" y="485">French Fries - $2.99</text><text fill="gray" font-size="12px" x="90" y="503">Crispy golden potato fries</text><text fill="black" font-size="14px" font-weight="bold" x="90" y="525">Onion Rings - $3.49</text><text fill="gray" font-size="12px" x="90" y="543">Crispy battered onion slices</text><text fill="black" font-size="14px" font-weight="bold" x="90" y="565">Cheese Sticks - $4.49</text><text fill="gray" font-size="12px" x="90" y="583">Mozzarella sticks with marinara</text><text fill="black" font-size="14px" font-weight="bold" x="90" y="605">Side Salad - $3.99</text><text fill="gray" font-size="12px" x="90" y="623">Fresh greens with light dressing</text><text fill="darkred" font-size="20px" font-weight="bold" x="430" y="240">Drinks</text><text fill="black" font-size="14px" font-weight="bold" x="430" y="265">Cola - $1.99</text><text fill="gray" font-size="12px" x="430" y="283">Classic fizzy cola drink</text><text fill="black" font-size="14px" font-weight="bold" x="430" y="305">Iced Tea - $2.29</text><text fill="gray" font-size="12px" x="430" y="323">Freshly brewed chilled tea</text><text fill="black" font-size="14px" font-weight="bold" x="430" y="345">Lemonade - $2.49</text><text fill="gray" font-size="12px" x="430" y="363">Tangy and refreshing lemonade</text><text fill="black" font-size="14px" font-weight="bold" x="430" y="385">Milkshake - $3.99</text><text fill="gray" font-size="12px" x="430" y="403">Creamy shake with choice of flavor</text></svg>